<svg width="32" height="32" viewBox="0 0 32 32" fill="none" xmlns="http://www.w3.org/2000/svg">
<path d="M23.6132 15.0533L16.9465 8.38667C16.8197 8.26528 16.6702 8.17013 16.5065 8.10667C16.1819 7.97331 15.8178 7.97331 15.4932 8.10667C15.3295 8.17013 15.18 8.26528 15.0532 8.38667L8.38651 15.0533C8.26219 15.1777 8.16357 15.3252 8.09629 15.4877C8.02901 15.6501 7.99438 15.8242 7.99438 16C7.99438 16.3551 8.13544 16.6956 8.38651 16.9467C8.63758 17.1977 8.9781 17.3388 9.33317 17.3388C9.68824 17.3388 10.0288 17.1977 10.2798 16.9467L14.6665 12.5467V22.6667C14.6665 23.0203 14.807 23.3594 15.057 23.6095C15.3071 23.8595 15.6462 24 15.9998 24C16.3535 24 16.6926 23.8595 16.9427 23.6095C17.1927 23.3594 17.3332 23.0203 17.3332 22.6667V12.5467L21.7198 16.9467C21.8438 17.0716 21.9913 17.1708 22.1537 17.2385C22.3162 17.3062 22.4905 17.3411 22.6665 17.3411C22.8425 17.3411 23.0168 17.3062 23.1793 17.2385C23.3418 17.1708 23.4892 17.0716 23.6132 16.9467C23.7381 16.8227 23.8373 16.6753 23.905 16.5128C23.9727 16.3503 24.0076 16.176 24.0076 16C24.0076 15.824 23.9727 15.6497 23.905 15.4872C23.8373 15.3248 23.7381 15.1773 23.6132 15.0533Z" fill="white"/>
</svg>
