<svg width="1366" height="567" viewBox="0 0 1366 567" fill="none" xmlns="http://www.w3.org/2000/svg">
<g clip-path="url(#clip0_8_223)">
<path fill-rule="evenodd" clip-rule="evenodd" d="M736.219 46.2817L736.808 46.8708L738.911 48.9733L739.5 49.5625L740.089 48.9733L742.192 46.8708L742.781 46.2817L742.192 45.6917L740.089 43.5892L739.5 43L738.911 43.5892L736.808 45.6917L736.219 46.2817ZM736.219 54.7183L736.808 55.3083L738.911 57.4108L739.5 58L740.089 57.4108L742.192 55.3083L742.781 54.7192L742.192 54.1292L740.089 52.0267L739.5 51.4375L738.911 52.0267L736.808 54.1292L736.219 54.7183ZM732.589 51.0892L732 50.5L732.589 49.9108L734.692 47.8083L735.282 47.2192L735.871 47.8083L737.973 49.9108L738.562 50.5L737.973 51.0892L735.871 53.1917L735.282 53.7808L734.692 53.1917L732.589 51.0892ZM740.438 50.5L741.027 51.0892L743.129 53.1917L743.718 53.7808L744.308 53.1917L746.411 51.0892L747 50.5L746.411 49.9108L744.308 47.8083L743.719 47.2192L743.129 47.8083L741.027 49.9108L740.438 50.5Z" fill="#383838"/>
</g>
<path d="M755.548 45.976C755.972 45.976 756.372 46.044 756.748 46.18C757.132 46.308 757.476 46.488 757.78 46.72C758.084 46.952 758.332 47.22 758.524 47.524C758.724 47.82 758.852 48.144 758.908 48.496C758.924 48.584 758.924 48.644 758.908 48.676C758.892 48.7 758.856 48.716 758.8 48.724L757.684 48.796C757.636 48.804 757.604 48.796 757.588 48.772C757.572 48.748 757.556 48.712 757.54 48.664C757.436 48.184 757.216 47.792 756.88 47.488C756.544 47.184 756.116 47.032 755.596 47.032C754.836 47.032 754.248 47.32 753.832 47.896C753.424 48.472 753.22 49.352 753.22 50.536C753.22 51.704 753.42 52.576 753.82 53.152C754.228 53.728 754.836 54.016 755.644 54.016C756.18 54.016 756.628 53.888 756.988 53.632C757.356 53.368 757.656 52.94 757.888 52.348C757.912 52.292 757.972 52.272 758.068 52.288L758.92 52.492C758.944 52.5 758.968 52.516 758.992 52.54C759.016 52.564 759.02 52.616 759.004 52.696C758.948 52.904 758.856 53.12 758.728 53.344C758.6 53.568 758.44 53.788 758.248 54.004C758.056 54.212 757.828 54.4 757.564 54.568C757.3 54.736 757 54.872 756.664 54.976C756.336 55.072 755.976 55.12 755.584 55.12C754.776 55.12 754.08 54.932 753.496 54.556C752.92 54.18 752.476 53.648 752.164 52.96C751.852 52.272 751.696 51.46 751.696 50.524C751.696 49.58 751.852 48.768 752.164 48.088C752.476 47.408 752.92 46.888 753.496 46.528C754.072 46.16 754.756 45.976 755.548 45.976ZM763.131 55.12C762.515 55.12 761.975 54.984 761.511 54.712C761.047 54.432 760.687 54.048 760.431 53.56C760.175 53.064 760.047 52.496 760.047 51.856C760.047 51.192 760.179 50.612 760.443 50.116C760.707 49.612 761.071 49.22 761.535 48.94C762.007 48.66 762.543 48.52 763.143 48.52C763.767 48.52 764.307 48.664 764.763 48.952C765.227 49.232 765.587 49.624 765.843 50.128C766.099 50.624 766.227 51.196 766.227 51.844C766.227 52.484 766.095 53.052 765.831 53.548C765.575 54.036 765.215 54.42 764.751 54.7C764.287 54.98 763.747 55.12 763.131 55.12ZM763.155 54.22C763.531 54.22 763.851 54.124 764.115 53.932C764.379 53.74 764.579 53.468 764.715 53.116C764.859 52.756 764.931 52.324 764.931 51.82C764.931 51.316 764.859 50.884 764.715 50.524C764.579 50.164 764.375 49.888 764.103 49.696C763.839 49.496 763.519 49.396 763.143 49.396C762.767 49.396 762.443 49.496 762.171 49.696C761.907 49.888 761.703 50.164 761.559 50.524C761.415 50.884 761.343 51.316 761.343 51.82C761.343 52.324 761.415 52.756 761.559 53.116C761.703 53.468 761.907 53.74 762.171 53.932C762.443 54.124 762.771 54.22 763.155 54.22ZM767.759 55C767.631 55 767.567 54.936 767.567 54.808V48.82C767.567 48.7 767.619 48.64 767.723 48.64H768.659C768.755 48.64 768.803 48.692 768.803 48.796V49.456C768.803 49.496 768.815 49.524 768.839 49.54C768.863 49.548 768.891 49.532 768.923 49.492C769.171 49.292 769.403 49.12 769.619 48.976C769.835 48.824 770.055 48.712 770.279 48.64C770.511 48.56 770.759 48.52 771.023 48.52C771.479 48.52 771.851 48.628 772.139 48.844C772.427 49.052 772.623 49.304 772.727 49.6C772.743 49.632 772.763 49.644 772.787 49.636C772.819 49.628 772.851 49.608 772.883 49.576C773.115 49.36 773.347 49.176 773.579 49.024C773.811 48.864 774.047 48.74 774.287 48.652C774.527 48.564 774.779 48.52 775.043 48.52C775.619 48.52 776.067 48.688 776.387 49.024C776.715 49.36 776.879 49.812 776.879 50.38V54.784C776.879 54.928 776.807 55 776.663 55H775.775C775.719 55 775.675 54.988 775.643 54.964C775.619 54.932 775.607 54.88 775.607 54.808V50.608C775.607 50.256 775.519 49.98 775.343 49.78C775.167 49.58 774.903 49.48 774.551 49.48C774.343 49.48 774.143 49.52 773.951 49.6C773.759 49.68 773.583 49.78 773.423 49.9C773.271 50.012 773.135 50.124 773.015 50.236C772.959 50.292 772.919 50.344 772.895 50.392C772.871 50.44 772.859 50.504 772.859 50.584V54.784C772.859 54.928 772.787 55 772.643 55H771.767C771.711 55 771.667 54.988 771.635 54.964C771.603 54.932 771.587 54.88 771.587 54.808V50.608C771.587 50.256 771.503 49.98 771.335 49.78C771.167 49.58 770.899 49.48 770.531 49.48C770.227 49.48 769.947 49.556 769.691 49.708C769.443 49.852 769.159 50.076 768.839 50.38V54.796C768.839 54.932 768.763 55 768.611 55H767.759ZM779.556 48.64C779.692 48.64 779.76 48.704 779.76 48.832V49.3C779.76 49.356 779.772 49.388 779.796 49.396C779.828 49.396 779.868 49.376 779.916 49.336C780.02 49.232 780.148 49.12 780.3 49C780.452 48.872 780.644 48.76 780.876 48.664C781.116 48.568 781.408 48.52 781.752 48.52C782.24 48.52 782.676 48.64 783.06 48.88C783.452 49.112 783.76 49.464 783.984 49.936C784.216 50.408 784.332 51.008 784.332 51.736C784.332 52.472 784.216 53.092 783.984 53.596C783.76 54.092 783.444 54.472 783.036 54.736C782.636 54.992 782.168 55.12 781.632 55.12C781.28 55.12 780.964 55.068 780.684 54.964C780.412 54.852 780.172 54.704 779.964 54.52C779.892 54.448 779.84 54.42 779.808 54.436C779.776 54.444 779.76 54.496 779.76 54.592V56.812C779.76 56.924 779.712 56.98 779.616 56.98H778.644C778.54 56.98 778.488 56.924 778.488 56.812V48.856C778.488 48.776 778.504 48.72 778.536 48.688C778.568 48.656 778.628 48.64 778.716 48.64H779.556ZM779.76 53.524C779.976 53.748 780.2 53.928 780.432 54.064C780.672 54.192 780.94 54.256 781.236 54.256C781.596 54.256 781.908 54.164 782.172 53.98C782.444 53.796 782.656 53.52 782.808 53.152C782.96 52.776 783.036 52.304 783.036 51.736C783.036 51.168 782.956 50.712 782.796 50.368C782.644 50.024 782.436 49.776 782.172 49.624C781.908 49.464 781.616 49.384 781.296 49.384C781 49.384 780.736 49.448 780.504 49.576C780.272 49.704 780.088 49.864 779.952 50.056C779.824 50.248 779.76 50.44 779.76 50.632V53.524ZM788.443 55.12C787.827 55.12 787.287 54.984 786.823 54.712C786.359 54.432 785.999 54.048 785.743 53.56C785.487 53.064 785.359 52.496 785.359 51.856C785.359 51.192 785.491 50.612 785.755 50.116C786.019 49.612 786.383 49.22 786.847 48.94C787.319 48.66 787.855 48.52 788.455 48.52C789.079 48.52 789.619 48.664 790.075 48.952C790.539 49.232 790.899 49.624 791.155 50.128C791.411 50.624 791.539 51.196 791.539 51.844C791.539 52.484 791.407 53.052 791.143 53.548C790.887 54.036 790.527 54.42 790.063 54.7C789.599 54.98 789.059 55.12 788.443 55.12ZM788.467 54.22C788.843 54.22 789.163 54.124 789.427 53.932C789.691 53.74 789.891 53.468 790.027 53.116C790.171 52.756 790.243 52.324 790.243 51.82C790.243 51.316 790.171 50.884 790.027 50.524C789.891 50.164 789.687 49.888 789.415 49.696C789.151 49.496 788.831 49.396 788.455 49.396C788.079 49.396 787.755 49.496 787.483 49.696C787.219 49.888 787.015 50.164 786.871 50.524C786.727 50.884 786.655 51.316 786.655 51.82C786.655 52.324 786.727 52.756 786.871 53.116C787.015 53.468 787.219 53.74 787.483 53.932C787.755 54.124 788.083 54.22 788.467 54.22ZM793.071 55C792.943 55 792.879 54.936 792.879 54.808V48.82C792.879 48.7 792.931 48.64 793.035 48.64H793.983C794.079 48.64 794.127 48.692 794.127 48.796V49.456C794.127 49.496 794.135 49.524 794.151 49.54C794.175 49.548 794.207 49.532 794.247 49.492C794.495 49.292 794.731 49.12 794.955 48.976C795.179 48.824 795.407 48.712 795.639 48.64C795.871 48.56 796.123 48.52 796.395 48.52C797.003 48.52 797.475 48.688 797.811 49.024C798.147 49.36 798.315 49.804 798.315 50.356V54.784C798.315 54.928 798.247 55 798.111 55H797.223C797.159 55 797.111 54.988 797.079 54.964C797.055 54.932 797.043 54.88 797.043 54.808V50.608C797.043 50.256 796.951 49.98 796.767 49.78C796.583 49.58 796.299 49.48 795.915 49.48C795.699 49.48 795.499 49.516 795.315 49.588C795.131 49.652 794.947 49.752 794.763 49.888C794.579 50.016 794.375 50.18 794.151 50.38V54.796C794.151 54.932 794.075 55 793.923 55H793.071ZM800.906 52.264C800.906 52.624 800.99 52.952 801.158 53.248C801.334 53.536 801.566 53.768 801.854 53.944C802.15 54.112 802.478 54.196 802.838 54.196C803.206 54.196 803.534 54.12 803.822 53.968C804.11 53.816 804.374 53.58 804.614 53.26C804.638 53.228 804.662 53.212 804.686 53.212C804.71 53.204 804.746 53.212 804.794 53.236L805.406 53.524C805.494 53.564 805.502 53.628 805.43 53.716C805.206 54.044 804.958 54.312 804.686 54.52C804.422 54.728 804.126 54.88 803.798 54.976C803.47 55.072 803.106 55.12 802.706 55.12C802.098 55.12 801.562 54.984 801.098 54.712C800.634 54.44 800.266 54.06 799.994 53.572C799.73 53.084 799.598 52.524 799.598 51.892C799.598 51.196 799.734 50.6 800.006 50.104C800.278 49.6 800.646 49.212 801.11 48.94C801.582 48.66 802.106 48.52 802.682 48.52C803.274 48.52 803.79 48.652 804.23 48.916C804.678 49.172 805.026 49.544 805.274 50.032C805.522 50.52 805.646 51.112 805.646 51.808C805.646 51.88 805.638 51.944 805.622 52C805.606 52.048 805.554 52.072 805.466 52.072H801.026C800.986 52.072 800.954 52.092 800.93 52.132C800.914 52.164 800.906 52.208 800.906 52.264ZM804.182 51.316C804.27 51.316 804.326 51.304 804.35 51.28C804.374 51.256 804.386 51.212 804.386 51.148C804.386 50.844 804.318 50.556 804.182 50.284C804.054 50.012 803.866 49.792 803.618 49.624C803.378 49.456 803.078 49.372 802.718 49.372C802.342 49.372 802.018 49.464 801.746 49.648C801.482 49.824 801.278 50.06 801.134 50.356C800.998 50.652 800.93 50.968 800.93 51.304L804.182 51.316ZM807.11 55C806.982 55 806.918 54.936 806.918 54.808V48.82C806.918 48.7 806.97 48.64 807.074 48.64H808.022C808.118 48.64 808.166 48.692 808.166 48.796V49.456C808.166 49.496 808.174 49.524 808.19 49.54C808.214 49.548 808.246 49.532 808.286 49.492C808.534 49.292 808.77 49.12 808.994 48.976C809.218 48.824 809.446 48.712 809.678 48.64C809.91 48.56 810.162 48.52 810.434 48.52C811.042 48.52 811.514 48.688 811.85 49.024C812.186 49.36 812.354 49.804 812.354 50.356V54.784C812.354 54.928 812.286 55 812.15 55H811.262C811.198 55 811.15 54.988 811.118 54.964C811.094 54.932 811.082 54.88 811.082 54.808V50.608C811.082 50.256 810.99 49.98 810.806 49.78C810.622 49.58 810.338 49.48 809.954 49.48C809.738 49.48 809.538 49.516 809.354 49.588C809.17 49.652 808.986 49.752 808.802 49.888C808.618 50.016 808.414 50.18 808.19 50.38V54.796C808.19 54.932 808.114 55 807.962 55H807.11ZM815.801 49.552C815.729 49.552 815.693 49.592 815.693 49.672V53.188C815.693 53.532 815.757 53.768 815.885 53.896C816.013 54.016 816.209 54.076 816.473 54.076H817.241C817.289 54.076 817.325 54.092 817.349 54.124C817.373 54.148 817.385 54.18 817.385 54.22V54.736C817.385 54.84 817.325 54.908 817.205 54.94C817.101 54.956 816.973 54.968 816.821 54.976C816.669 54.984 816.517 54.992 816.365 55C816.221 55 816.093 55 815.981 55C815.461 55 815.069 54.88 814.805 54.64C814.549 54.392 814.421 54.012 814.421 53.5V49.696C814.421 49.6 814.381 49.552 814.301 49.552H813.401C813.297 49.552 813.245 49.504 813.245 49.408V48.772C813.245 48.684 813.293 48.64 813.389 48.64H814.349C814.413 48.64 814.445 48.604 814.445 48.532L814.589 46.648C814.597 46.536 814.645 46.48 814.733 46.48H815.561C815.665 46.48 815.717 46.544 815.717 46.672V48.532C815.717 48.604 815.753 48.64 815.825 48.64H817.265C817.361 48.64 817.409 48.684 817.409 48.772V49.408C817.409 49.504 817.353 49.552 817.241 49.552H815.801ZM822.897 53.896C823.009 53.896 823.065 53.94 823.065 54.028V54.844C823.065 54.884 823.049 54.92 823.017 54.952C822.993 54.984 822.949 55 822.885 55H818.517C818.405 55 818.349 54.952 818.349 54.856V54.028C818.349 53.94 818.401 53.896 818.505 53.896H819.933C820.005 53.896 820.041 53.872 820.041 53.824V47.716C820.041 47.62 819.997 47.584 819.909 47.608L818.529 48.088C818.401 48.12 818.337 48.064 818.337 47.92V47.344C818.337 47.272 818.345 47.228 818.361 47.212C818.385 47.188 818.421 47.16 818.469 47.128L820.329 46.204C820.417 46.164 820.485 46.136 820.533 46.12C820.589 46.104 820.657 46.096 820.737 46.096H821.337C821.441 46.096 821.493 46.152 821.493 46.264V53.788C821.493 53.86 821.521 53.896 821.577 53.896H822.897Z" fill="#383838"/>
<rect x="733" y="67" width="547" height="305" rx="14" stroke="#383838" stroke-width="2" stroke-dasharray="14 14"/>
<mask id="path-4-outside-1_8_223" maskUnits="userSpaceOnUse" x="431" y="87" width="512" height="271" fill="black">
<rect fill="white" x="431" y="87" width="512" height="271"/>
<path d="M432.24 179V89.6H464.76C470.76 89.6 476.04 90.72 480.6 92.96C485.24 95.12 488.84 98.32 491.4 102.56C493.96 106.72 495.24 111.72 495.24 117.56C495.24 123.32 493.92 128.28 491.28 132.44C488.72 136.6 485.16 139.8 480.6 142.04C476.04 144.28 470.76 145.4 464.76 145.4H446.4V179H432.24ZM446.4 132.8H465.12C468.32 132.8 471.12 132.16 473.52 130.88C475.92 129.6 477.8 127.84 479.16 125.6C480.52 123.28 481.2 120.56 481.2 117.44C481.2 114.32 480.52 111.64 479.16 109.4C477.8 107.08 475.92 105.32 473.52 104.12C471.12 102.84 468.32 102.2 465.12 102.2H446.4V132.8ZM508.498 179V114.08H521.458V127.16L520.258 125.24C521.698 121 524.018 117.96 527.218 116.12C530.418 114.2 534.258 113.24 538.738 113.24H542.698V125.6H537.058C532.578 125.6 528.938 127 526.138 129.8C523.418 132.52 522.058 136.44 522.058 141.56V179H508.498ZM583.295 180.44C577.055 180.44 571.335 178.96 566.135 176C561.015 173.04 556.935 169 553.895 163.88C550.855 158.76 549.335 152.96 549.335 146.48C549.335 139.92 550.855 134.12 553.895 129.08C556.935 123.96 561.015 119.96 566.135 117.08C571.255 114.12 576.975 112.64 583.295 112.64C589.695 112.64 595.415 114.12 600.455 117.08C605.575 119.96 609.615 123.96 612.575 129.08C615.615 134.12 617.135 139.92 617.135 146.48C617.135 153.04 615.615 158.88 612.575 164C609.535 169.12 605.455 173.16 600.335 176.12C595.215 179 589.535 180.44 583.295 180.44ZM583.295 167.84C587.135 167.84 590.535 166.92 593.495 165.08C596.455 163.24 598.775 160.72 600.455 157.52C602.215 154.24 603.095 150.56 603.095 146.48C603.095 142.4 602.215 138.76 600.455 135.56C598.775 132.36 596.455 129.84 593.495 128C590.535 126.16 587.135 125.24 583.295 125.24C579.535 125.24 576.135 126.16 573.095 128C570.135 129.84 567.775 132.36 566.015 135.56C564.335 138.76 563.495 142.4 563.495 146.48C563.495 150.56 564.335 154.24 566.015 157.52C567.775 160.72 570.135 163.24 573.095 165.08C576.135 166.92 579.535 167.84 583.295 167.84ZM660.373 180.44C654.133 180.44 648.533 178.96 643.573 176C638.693 172.96 634.813 168.88 631.933 163.76C629.133 158.64 627.733 152.88 627.733 146.48C627.733 140.08 629.173 134.32 632.053 129.2C634.933 124.08 638.813 120.04 643.693 117.08C648.573 114.12 654.093 112.64 660.253 112.64C665.453 112.64 670.053 113.68 674.053 115.76C678.053 117.84 681.213 120.72 683.533 124.4L681.493 127.52V88.16H694.933V179H682.093V165.8L683.653 168.32C681.413 172.24 678.213 175.24 674.053 177.32C669.893 179.4 665.333 180.44 660.373 180.44ZM661.693 167.84C665.453 167.84 668.813 166.92 671.773 165.08C674.813 163.24 677.173 160.72 678.853 157.52C680.613 154.24 681.493 150.56 681.493 146.48C681.493 142.4 680.613 138.76 678.853 135.56C677.173 132.36 674.813 129.84 671.773 128C668.813 126.16 665.453 125.24 661.693 125.24C657.933 125.24 654.533 126.16 651.493 128C648.453 129.84 646.093 132.36 644.413 135.56C642.733 138.76 641.893 142.4 641.893 146.48C641.893 150.56 642.733 154.24 644.413 157.52C646.093 160.72 648.413 163.24 651.373 165.08C654.413 166.92 657.853 167.84 661.693 167.84ZM733.924 180.44C729.044 180.44 724.764 179.36 721.084 177.2C717.404 174.96 714.524 171.88 712.444 167.96C710.444 163.96 709.444 159.36 709.444 154.16V114.08H723.004V152.96C723.004 155.92 723.604 158.52 724.804 160.76C726.004 163 727.684 164.76 729.844 166.04C732.004 167.24 734.484 167.84 737.284 167.84C740.164 167.84 742.684 167.2 744.844 165.92C747.004 164.64 748.684 162.84 749.884 160.52C751.164 158.2 751.804 155.48 751.804 152.36V114.08H765.244V179H752.404V166.28L753.844 167.96C752.324 171.96 749.804 175.04 746.284 177.2C742.764 179.36 738.644 180.44 733.924 180.44ZM811.916 180.44C805.436 180.44 799.676 178.96 794.636 176C789.676 172.96 785.716 168.88 782.756 163.76C779.876 158.64 778.436 152.84 778.436 146.36C778.436 139.96 779.876 134.2 782.756 129.08C785.636 123.96 789.596 119.96 794.636 117.08C799.676 114.12 805.436 112.64 811.916 112.64C816.316 112.64 820.436 113.44 824.276 115.04C828.116 116.56 831.436 118.68 834.236 121.4C837.116 124.12 839.236 127.28 840.596 130.88L828.716 136.4C827.356 133.04 825.156 130.36 822.116 128.36C819.156 126.28 815.756 125.24 811.916 125.24C808.236 125.24 804.916 126.16 801.956 128C799.076 129.76 796.796 132.28 795.116 135.56C793.436 138.76 792.596 142.4 792.596 146.48C792.596 150.56 793.436 154.24 795.116 157.52C796.796 160.72 799.076 163.24 801.956 165.08C804.916 166.92 808.236 167.84 811.916 167.84C815.836 167.84 819.236 166.84 822.116 164.84C825.076 162.76 827.276 160 828.716 156.56L840.596 162.2C839.316 165.64 837.236 168.76 834.356 171.56C831.556 174.28 828.236 176.44 824.396 178.04C820.556 179.64 816.396 180.44 811.916 180.44ZM881.93 179.72C875.13 179.72 869.85 177.8 866.09 173.96C862.33 170.12 860.45 164.72 860.45 157.76V126.32H849.05V114.08H850.85C853.89 114.08 856.25 113.2 857.93 111.44C859.61 109.68 860.45 107.28 860.45 104.24V99.2H874.01V114.08H888.77V126.32H874.01V157.16C874.01 159.4 874.37 161.32 875.09 162.92C875.81 164.44 876.97 165.64 878.57 166.52C880.17 167.32 882.25 167.72 884.81 167.72C885.45 167.72 886.17 167.68 886.97 167.6C887.77 167.52 888.53 167.44 889.25 167.36V179C888.13 179.16 886.89 179.32 885.53 179.48C884.17 179.64 882.97 179.72 881.93 179.72ZM432.24 330V240.6H461.52C470.8 240.6 478.84 242.48 485.64 246.24C492.52 249.92 497.84 255.12 501.6 261.84C505.36 268.56 507.24 276.36 507.24 285.24C507.24 294.04 505.36 301.84 501.6 308.64C497.84 315.36 492.52 320.6 485.64 324.36C478.84 328.12 470.8 330 461.52 330H432.24ZM446.4 317.4H461.76C468.08 317.4 473.56 316.08 478.2 313.44C482.92 310.8 486.56 307.08 489.12 302.28C491.68 297.48 492.96 291.8 492.96 285.24C492.96 278.68 491.64 273.04 489 268.32C486.44 263.52 482.84 259.8 478.2 257.16C473.56 254.52 468.08 253.2 461.76 253.2H446.4V317.4ZM550.345 331.44C543.865 331.44 538.105 329.96 533.065 327C528.105 323.96 524.225 319.88 521.425 314.76C518.625 309.56 517.225 303.76 517.225 297.36C517.225 290.8 518.625 285 521.425 279.96C524.305 274.92 528.145 270.96 532.945 268.08C537.745 265.12 543.185 263.64 549.265 263.64C554.145 263.64 558.505 264.48 562.345 266.16C566.185 267.84 569.425 270.16 572.065 273.12C574.705 276 576.705 279.32 578.065 283.08C579.505 286.84 580.225 290.84 580.225 295.08C580.225 296.12 580.185 297.2 580.105 298.32C580.025 299.44 579.865 300.48 579.625 301.44H527.905V290.64H571.945L565.465 295.56C566.265 291.64 565.985 288.16 564.625 285.12C563.345 282 561.345 279.56 558.625 277.8C555.985 275.96 552.865 275.04 549.265 275.04C545.665 275.04 542.465 275.96 539.665 277.8C536.865 279.56 534.705 282.12 533.185 285.48C531.665 288.76 531.065 292.76 531.385 297.48C530.985 301.88 531.585 305.72 533.185 309C534.865 312.28 537.185 314.84 540.145 316.68C543.185 318.52 546.625 319.44 550.465 319.44C554.385 319.44 557.705 318.56 560.425 316.8C563.225 315.04 565.425 312.76 567.025 309.96L578.065 315.36C576.785 318.4 574.785 321.16 572.065 323.64C569.425 326.04 566.225 327.96 562.465 329.4C558.785 330.76 554.745 331.44 550.345 331.44ZM617.459 331.44C610.819 331.44 604.979 329.8 599.939 326.52C594.979 323.24 591.499 318.84 589.499 313.32L599.939 308.4C601.699 312.08 604.099 315 607.139 317.16C610.259 319.32 613.699 320.4 617.459 320.4C620.659 320.4 623.259 319.68 625.259 318.24C627.259 316.8 628.259 314.84 628.259 312.36C628.259 310.76 627.819 309.48 626.939 308.52C626.059 307.48 624.939 306.64 623.579 306C622.299 305.36 620.979 304.88 619.619 304.56L609.419 301.68C603.819 300.08 599.619 297.68 596.819 294.48C594.099 291.2 592.739 287.4 592.739 283.08C592.739 279.16 593.739 275.76 595.739 272.88C597.739 269.92 600.499 267.64 604.019 266.04C607.539 264.44 611.499 263.64 615.899 263.64C621.819 263.64 627.099 265.12 631.739 268.08C636.379 270.96 639.659 275 641.579 280.2L631.139 285.12C629.859 282 627.819 279.52 625.019 277.68C622.299 275.84 619.219 274.92 615.779 274.92C612.819 274.92 610.459 275.64 608.699 277.08C606.939 278.44 606.059 280.24 606.059 282.48C606.059 284 606.459 285.28 607.259 286.32C608.059 287.28 609.099 288.08 610.379 288.72C611.659 289.28 612.979 289.76 614.339 290.16L624.899 293.28C630.259 294.8 634.379 297.2 637.259 300.48C640.139 303.68 641.579 307.52 641.579 312C641.579 315.84 640.539 319.24 638.459 322.2C636.459 325.08 633.659 327.36 630.059 329.04C626.459 330.64 622.259 331.44 617.459 331.44ZM654.865 330V265.08H668.425V330H654.865ZM654.865 256.2V240.6H668.425V256.2H654.865ZM715.599 356.4C710.879 356.4 706.519 355.64 702.519 354.12C698.519 352.6 695.079 350.48 692.199 347.76C689.319 345.12 687.159 342 685.719 338.4L698.199 333.24C699.319 336.28 701.359 338.8 704.319 340.8C707.359 342.8 711.079 343.8 715.479 343.8C718.919 343.8 721.999 343.12 724.719 341.76C727.439 340.48 729.599 338.56 731.199 336C732.799 333.52 733.599 330.52 733.599 327V312.36L735.999 315.12C733.759 319.28 730.639 322.44 726.639 324.6C722.719 326.76 718.279 327.84 713.319 327.84C707.319 327.84 701.919 326.44 697.119 323.64C692.319 320.84 688.519 317 685.719 312.12C682.999 307.24 681.639 301.76 681.639 295.68C681.639 289.52 682.999 284.04 685.719 279.24C688.519 274.44 692.279 270.64 696.999 267.84C701.719 265.04 707.119 263.64 713.199 263.64C718.159 263.64 722.559 264.72 726.399 266.88C730.319 268.96 733.519 272 735.999 276L734.199 279.36V265.08H747.039V327C747.039 332.6 745.679 337.6 742.959 342C740.319 346.48 736.639 350 731.919 352.56C727.199 355.12 721.759 356.4 715.599 356.4ZM714.879 315.24C718.479 315.24 721.679 314.4 724.479 312.72C727.279 310.96 729.479 308.64 731.079 305.76C732.759 302.8 733.599 299.48 733.599 295.8C733.599 292.12 732.759 288.8 731.079 285.84C729.399 282.88 727.159 280.56 724.359 278.88C721.559 277.12 718.399 276.24 714.879 276.24C711.199 276.24 707.919 277.12 705.039 278.88C702.159 280.56 699.879 282.88 698.199 285.84C696.599 288.72 695.799 292.04 695.799 295.8C695.799 299.4 696.599 302.68 698.199 305.64C699.879 308.6 702.159 310.96 705.039 312.72C707.919 314.4 711.199 315.24 714.879 315.24ZM762.912 330V265.08H775.872V277.8L774.312 276.12C775.912 272.04 778.472 268.96 781.992 266.88C785.512 264.72 789.592 263.64 794.232 263.64C799.032 263.64 803.272 264.68 806.952 266.76C810.632 268.84 813.512 271.72 815.592 275.4C817.672 279.08 818.712 283.32 818.712 288.12V330H805.272V291.72C805.272 288.44 804.672 285.68 803.472 283.44C802.272 281.12 800.552 279.36 798.312 278.16C796.152 276.88 793.672 276.24 790.872 276.24C788.072 276.24 785.552 276.88 783.312 278.16C781.152 279.36 779.472 281.12 778.272 283.44C777.072 285.76 776.472 288.52 776.472 291.72V330H762.912ZM863.705 331.44C857.225 331.44 851.465 329.96 846.425 327C841.465 323.96 837.585 319.88 834.785 314.76C831.985 309.56 830.585 303.76 830.585 297.36C830.585 290.8 831.985 285 834.785 279.96C837.665 274.92 841.505 270.96 846.305 268.08C851.105 265.12 856.545 263.64 862.625 263.64C867.505 263.64 871.865 264.48 875.705 266.16C879.545 267.84 882.785 270.16 885.425 273.12C888.065 276 890.065 279.32 891.425 283.08C892.865 286.84 893.585 290.84 893.585 295.08C893.585 296.12 893.545 297.2 893.465 298.32C893.385 299.44 893.225 300.48 892.985 301.44H841.265V290.64H885.305L878.825 295.56C879.625 291.64 879.345 288.16 877.985 285.12C876.705 282 874.705 279.56 871.985 277.8C869.345 275.96 866.225 275.04 862.625 275.04C859.025 275.04 855.825 275.96 853.025 277.8C850.225 279.56 848.065 282.12 846.545 285.48C845.025 288.76 844.425 292.76 844.745 297.48C844.345 301.88 844.945 305.72 846.545 309C848.225 312.28 850.545 314.84 853.505 316.68C856.545 318.52 859.985 319.44 863.825 319.44C867.745 319.44 871.065 318.56 873.785 316.8C876.585 315.04 878.785 312.76 880.385 309.96L891.425 315.36C890.145 318.4 888.145 321.16 885.425 323.64C882.785 326.04 879.585 327.96 875.825 329.4C872.145 330.76 868.105 331.44 863.705 331.44ZM906.818 330V265.08H919.778V278.16L918.578 276.24C920.018 272 922.338 268.96 925.538 267.12C928.738 265.2 932.578 264.24 937.058 264.24H941.018V276.6H935.378C930.898 276.6 927.258 278 924.458 280.8C921.738 283.52 920.378 287.44 920.378 292.56V330H906.818Z"/>
</mask>
<path d="M432.24 179V89.6H464.76C470.76 89.6 476.04 90.72 480.6 92.96C485.24 95.12 488.84 98.32 491.4 102.56C493.96 106.72 495.24 111.72 495.24 117.56C495.24 123.32 493.92 128.28 491.28 132.44C488.72 136.6 485.16 139.8 480.6 142.04C476.04 144.28 470.76 145.4 464.76 145.4H446.4V179H432.24ZM446.4 132.8H465.12C468.32 132.8 471.12 132.16 473.52 130.88C475.92 129.6 477.8 127.84 479.16 125.6C480.52 123.28 481.2 120.56 481.2 117.44C481.2 114.32 480.52 111.64 479.16 109.4C477.8 107.08 475.92 105.32 473.52 104.12C471.12 102.84 468.32 102.2 465.12 102.2H446.4V132.8ZM508.498 179V114.08H521.458V127.16L520.258 125.24C521.698 121 524.018 117.96 527.218 116.12C530.418 114.2 534.258 113.24 538.738 113.24H542.698V125.6H537.058C532.578 125.6 528.938 127 526.138 129.8C523.418 132.52 522.058 136.44 522.058 141.56V179H508.498ZM583.295 180.44C577.055 180.44 571.335 178.96 566.135 176C561.015 173.04 556.935 169 553.895 163.88C550.855 158.76 549.335 152.96 549.335 146.48C549.335 139.92 550.855 134.12 553.895 129.08C556.935 123.96 561.015 119.96 566.135 117.08C571.255 114.12 576.975 112.64 583.295 112.64C589.695 112.64 595.415 114.12 600.455 117.08C605.575 119.96 609.615 123.96 612.575 129.08C615.615 134.12 617.135 139.92 617.135 146.48C617.135 153.04 615.615 158.88 612.575 164C609.535 169.12 605.455 173.16 600.335 176.12C595.215 179 589.535 180.44 583.295 180.44ZM583.295 167.84C587.135 167.84 590.535 166.92 593.495 165.08C596.455 163.24 598.775 160.72 600.455 157.52C602.215 154.24 603.095 150.56 603.095 146.48C603.095 142.4 602.215 138.76 600.455 135.56C598.775 132.36 596.455 129.84 593.495 128C590.535 126.16 587.135 125.24 583.295 125.24C579.535 125.24 576.135 126.16 573.095 128C570.135 129.84 567.775 132.36 566.015 135.56C564.335 138.76 563.495 142.4 563.495 146.48C563.495 150.56 564.335 154.24 566.015 157.52C567.775 160.72 570.135 163.24 573.095 165.08C576.135 166.92 579.535 167.84 583.295 167.84ZM660.373 180.44C654.133 180.44 648.533 178.96 643.573 176C638.693 172.96 634.813 168.88 631.933 163.76C629.133 158.64 627.733 152.88 627.733 146.48C627.733 140.08 629.173 134.32 632.053 129.2C634.933 124.08 638.813 120.04 643.693 117.08C648.573 114.12 654.093 112.64 660.253 112.64C665.453 112.64 670.053 113.68 674.053 115.76C678.053 117.84 681.213 120.72 683.533 124.4L681.493 127.52V88.16H694.933V179H682.093V165.8L683.653 168.32C681.413 172.24 678.213 175.24 674.053 177.32C669.893 179.4 665.333 180.44 660.373 180.44ZM661.693 167.84C665.453 167.84 668.813 166.92 671.773 165.08C674.813 163.24 677.173 160.72 678.853 157.52C680.613 154.24 681.493 150.56 681.493 146.48C681.493 142.4 680.613 138.76 678.853 135.56C677.173 132.36 674.813 129.84 671.773 128C668.813 126.16 665.453 125.24 661.693 125.24C657.933 125.24 654.533 126.16 651.493 128C648.453 129.84 646.093 132.36 644.413 135.56C642.733 138.76 641.893 142.4 641.893 146.48C641.893 150.56 642.733 154.24 644.413 157.52C646.093 160.72 648.413 163.24 651.373 165.08C654.413 166.92 657.853 167.84 661.693 167.84ZM733.924 180.44C729.044 180.44 724.764 179.36 721.084 177.2C717.404 174.96 714.524 171.88 712.444 167.96C710.444 163.96 709.444 159.36 709.444 154.16V114.08H723.004V152.96C723.004 155.92 723.604 158.52 724.804 160.76C726.004 163 727.684 164.76 729.844 166.04C732.004 167.24 734.484 167.84 737.284 167.84C740.164 167.84 742.684 167.2 744.844 165.92C747.004 164.64 748.684 162.84 749.884 160.52C751.164 158.2 751.804 155.48 751.804 152.36V114.08H765.244V179H752.404V166.28L753.844 167.96C752.324 171.96 749.804 175.04 746.284 177.2C742.764 179.36 738.644 180.44 733.924 180.44ZM811.916 180.44C805.436 180.44 799.676 178.96 794.636 176C789.676 172.96 785.716 168.88 782.756 163.76C779.876 158.64 778.436 152.84 778.436 146.36C778.436 139.96 779.876 134.2 782.756 129.08C785.636 123.96 789.596 119.96 794.636 117.08C799.676 114.12 805.436 112.64 811.916 112.64C816.316 112.64 820.436 113.44 824.276 115.04C828.116 116.56 831.436 118.68 834.236 121.4C837.116 124.12 839.236 127.28 840.596 130.88L828.716 136.4C827.356 133.04 825.156 130.36 822.116 128.36C819.156 126.28 815.756 125.24 811.916 125.24C808.236 125.24 804.916 126.16 801.956 128C799.076 129.76 796.796 132.28 795.116 135.56C793.436 138.76 792.596 142.4 792.596 146.48C792.596 150.56 793.436 154.24 795.116 157.52C796.796 160.72 799.076 163.24 801.956 165.08C804.916 166.92 808.236 167.84 811.916 167.84C815.836 167.84 819.236 166.84 822.116 164.84C825.076 162.76 827.276 160 828.716 156.56L840.596 162.2C839.316 165.64 837.236 168.76 834.356 171.56C831.556 174.28 828.236 176.44 824.396 178.04C820.556 179.64 816.396 180.44 811.916 180.44ZM881.93 179.72C875.13 179.72 869.85 177.8 866.09 173.96C862.33 170.12 860.45 164.72 860.45 157.76V126.32H849.05V114.08H850.85C853.89 114.08 856.25 113.2 857.93 111.44C859.61 109.68 860.45 107.28 860.45 104.24V99.2H874.01V114.08H888.77V126.32H874.01V157.16C874.01 159.4 874.37 161.32 875.09 162.92C875.81 164.44 876.97 165.64 878.57 166.52C880.17 167.32 882.25 167.72 884.81 167.72C885.45 167.72 886.17 167.68 886.97 167.6C887.77 167.52 888.53 167.44 889.25 167.36V179C888.13 179.16 886.89 179.32 885.53 179.48C884.17 179.64 882.97 179.72 881.93 179.72ZM432.24 330V240.6H461.52C470.8 240.6 478.84 242.48 485.64 246.24C492.52 249.92 497.84 255.12 501.6 261.84C505.36 268.56 507.24 276.36 507.24 285.24C507.24 294.04 505.36 301.84 501.6 308.64C497.84 315.36 492.52 320.6 485.64 324.36C478.84 328.12 470.8 330 461.52 330H432.24ZM446.4 317.4H461.76C468.08 317.4 473.56 316.08 478.2 313.44C482.92 310.8 486.56 307.08 489.12 302.28C491.68 297.48 492.96 291.8 492.96 285.24C492.96 278.68 491.64 273.04 489 268.32C486.44 263.52 482.84 259.8 478.2 257.16C473.56 254.52 468.08 253.2 461.76 253.2H446.4V317.4ZM550.345 331.44C543.865 331.44 538.105 329.96 533.065 327C528.105 323.96 524.225 319.88 521.425 314.76C518.625 309.56 517.225 303.76 517.225 297.36C517.225 290.8 518.625 285 521.425 279.96C524.305 274.92 528.145 270.96 532.945 268.08C537.745 265.12 543.185 263.64 549.265 263.64C554.145 263.64 558.505 264.48 562.345 266.16C566.185 267.84 569.425 270.16 572.065 273.12C574.705 276 576.705 279.32 578.065 283.08C579.505 286.84 580.225 290.84 580.225 295.08C580.225 296.12 580.185 297.2 580.105 298.32C580.025 299.44 579.865 300.48 579.625 301.44H527.905V290.64H571.945L565.465 295.56C566.265 291.64 565.985 288.16 564.625 285.12C563.345 282 561.345 279.56 558.625 277.8C555.985 275.96 552.865 275.04 549.265 275.04C545.665 275.04 542.465 275.96 539.665 277.8C536.865 279.56 534.705 282.12 533.185 285.48C531.665 288.76 531.065 292.76 531.385 297.48C530.985 301.88 531.585 305.72 533.185 309C534.865 312.28 537.185 314.84 540.145 316.68C543.185 318.52 546.625 319.44 550.465 319.44C554.385 319.44 557.705 318.56 560.425 316.8C563.225 315.04 565.425 312.76 567.025 309.96L578.065 315.36C576.785 318.4 574.785 321.16 572.065 323.64C569.425 326.04 566.225 327.96 562.465 329.4C558.785 330.76 554.745 331.44 550.345 331.44ZM617.459 331.44C610.819 331.44 604.979 329.8 599.939 326.52C594.979 323.24 591.499 318.84 589.499 313.32L599.939 308.4C601.699 312.08 604.099 315 607.139 317.16C610.259 319.32 613.699 320.4 617.459 320.4C620.659 320.4 623.259 319.68 625.259 318.24C627.259 316.8 628.259 314.84 628.259 312.36C628.259 310.76 627.819 309.48 626.939 308.52C626.059 307.48 624.939 306.64 623.579 306C622.299 305.36 620.979 304.88 619.619 304.56L609.419 301.68C603.819 300.08 599.619 297.68 596.819 294.48C594.099 291.2 592.739 287.4 592.739 283.08C592.739 279.16 593.739 275.76 595.739 272.88C597.739 269.92 600.499 267.64 604.019 266.04C607.539 264.44 611.499 263.64 615.899 263.64C621.819 263.64 627.099 265.12 631.739 268.08C636.379 270.96 639.659 275 641.579 280.2L631.139 285.12C629.859 282 627.819 279.52 625.019 277.68C622.299 275.84 619.219 274.92 615.779 274.92C612.819 274.92 610.459 275.64 608.699 277.08C606.939 278.44 606.059 280.24 606.059 282.48C606.059 284 606.459 285.28 607.259 286.32C608.059 287.28 609.099 288.08 610.379 288.72C611.659 289.28 612.979 289.76 614.339 290.16L624.899 293.28C630.259 294.8 634.379 297.2 637.259 300.48C640.139 303.68 641.579 307.52 641.579 312C641.579 315.84 640.539 319.24 638.459 322.2C636.459 325.08 633.659 327.36 630.059 329.04C626.459 330.64 622.259 331.44 617.459 331.44ZM654.865 330V265.08H668.425V330H654.865ZM654.865 256.2V240.6H668.425V256.2H654.865ZM715.599 356.4C710.879 356.4 706.519 355.64 702.519 354.12C698.519 352.6 695.079 350.48 692.199 347.76C689.319 345.12 687.159 342 685.719 338.4L698.199 333.24C699.319 336.28 701.359 338.8 704.319 340.8C707.359 342.8 711.079 343.8 715.479 343.8C718.919 343.8 721.999 343.12 724.719 341.76C727.439 340.48 729.599 338.56 731.199 336C732.799 333.52 733.599 330.52 733.599 327V312.36L735.999 315.12C733.759 319.28 730.639 322.44 726.639 324.6C722.719 326.76 718.279 327.84 713.319 327.84C707.319 327.84 701.919 326.44 697.119 323.64C692.319 320.84 688.519 317 685.719 312.12C682.999 307.24 681.639 301.76 681.639 295.68C681.639 289.52 682.999 284.04 685.719 279.24C688.519 274.44 692.279 270.64 696.999 267.84C701.719 265.04 707.119 263.64 713.199 263.64C718.159 263.64 722.559 264.72 726.399 266.88C730.319 268.96 733.519 272 735.999 276L734.199 279.36V265.08H747.039V327C747.039 332.6 745.679 337.6 742.959 342C740.319 346.48 736.639 350 731.919 352.56C727.199 355.12 721.759 356.4 715.599 356.4ZM714.879 315.24C718.479 315.24 721.679 314.4 724.479 312.72C727.279 310.96 729.479 308.64 731.079 305.76C732.759 302.8 733.599 299.48 733.599 295.8C733.599 292.12 732.759 288.8 731.079 285.84C729.399 282.88 727.159 280.56 724.359 278.88C721.559 277.12 718.399 276.24 714.879 276.24C711.199 276.24 707.919 277.12 705.039 278.88C702.159 280.56 699.879 282.88 698.199 285.84C696.599 288.72 695.799 292.04 695.799 295.8C695.799 299.4 696.599 302.68 698.199 305.64C699.879 308.6 702.159 310.96 705.039 312.72C707.919 314.4 711.199 315.24 714.879 315.24ZM762.912 330V265.08H775.872V277.8L774.312 276.12C775.912 272.04 778.472 268.96 781.992 266.88C785.512 264.72 789.592 263.64 794.232 263.64C799.032 263.64 803.272 264.68 806.952 266.76C810.632 268.84 813.512 271.72 815.592 275.4C817.672 279.08 818.712 283.32 818.712 288.12V330H805.272V291.72C805.272 288.44 804.672 285.68 803.472 283.44C802.272 281.12 800.552 279.36 798.312 278.16C796.152 276.88 793.672 276.24 790.872 276.24C788.072 276.24 785.552 276.88 783.312 278.16C781.152 279.36 779.472 281.12 778.272 283.44C777.072 285.76 776.472 288.52 776.472 291.72V330H762.912ZM863.705 331.44C857.225 331.44 851.465 329.96 846.425 327C841.465 323.96 837.585 319.88 834.785 314.76C831.985 309.56 830.585 303.76 830.585 297.36C830.585 290.8 831.985 285 834.785 279.96C837.665 274.92 841.505 270.96 846.305 268.08C851.105 265.12 856.545 263.64 862.625 263.64C867.505 263.64 871.865 264.48 875.705 266.16C879.545 267.84 882.785 270.16 885.425 273.12C888.065 276 890.065 279.32 891.425 283.08C892.865 286.84 893.585 290.84 893.585 295.08C893.585 296.12 893.545 297.2 893.465 298.32C893.385 299.44 893.225 300.48 892.985 301.44H841.265V290.64H885.305L878.825 295.56C879.625 291.64 879.345 288.16 877.985 285.12C876.705 282 874.705 279.56 871.985 277.8C869.345 275.96 866.225 275.04 862.625 275.04C859.025 275.04 855.825 275.96 853.025 277.8C850.225 279.56 848.065 282.12 846.545 285.48C845.025 288.76 844.425 292.76 844.745 297.48C844.345 301.88 844.945 305.72 846.545 309C848.225 312.28 850.545 314.84 853.505 316.68C856.545 318.52 859.985 319.44 863.825 319.44C867.745 319.44 871.065 318.56 873.785 316.8C876.585 315.04 878.785 312.76 880.385 309.96L891.425 315.36C890.145 318.4 888.145 321.16 885.425 323.64C882.785 326.04 879.585 327.96 875.825 329.4C872.145 330.76 868.105 331.44 863.705 331.44ZM906.818 330V265.08H919.778V278.16L918.578 276.24C920.018 272 922.338 268.96 925.538 267.12C928.738 265.2 932.578 264.24 937.058 264.24H941.018V276.6H935.378C930.898 276.6 927.258 278 924.458 280.8C921.738 283.52 920.378 287.44 920.378 292.56V330H906.818Z" fill="#383838"/>
<path d="M432.24 179H431.24V180H432.24V179ZM432.24 89.6V88.6H431.24V89.6H432.24ZM480.6 92.96L480.159 93.8576L480.168 93.8622L480.178 93.8666L480.6 92.96ZM491.4 102.56L490.544 103.077L490.548 103.084L491.4 102.56ZM491.28 132.44L490.436 131.904L490.428 131.916L491.28 132.44ZM480.6 142.04L480.159 141.142L480.6 142.04ZM446.4 145.4V144.4H445.4V145.4H446.4ZM446.4 179V180H447.4V179H446.4ZM446.4 132.8H445.4V133.8H446.4V132.8ZM479.16 125.6L480.015 126.119L480.019 126.112L480.023 126.106L479.16 125.6ZM479.16 109.4L478.297 109.906L478.301 109.912L478.305 109.919L479.16 109.4ZM473.52 104.12L473.049 105.002L473.061 105.009L473.073 105.014L473.52 104.12ZM446.4 102.2V101.2H445.4V102.2H446.4ZM433.24 179V89.6H431.24V179H433.24ZM432.24 90.6H464.76V88.6H432.24V90.6ZM464.76 90.6C470.635 90.6 475.759 91.6961 480.159 93.8576L481.041 92.0624C476.321 89.7439 470.885 88.6 464.76 88.6V90.6ZM480.178 93.8666C484.644 95.9457 488.09 99.0129 490.544 103.077L492.256 102.043C489.59 97.6271 485.836 94.2943 481.022 92.0534L480.178 93.8666ZM490.548 103.084C492.994 107.058 494.24 111.869 494.24 117.56H496.24C496.24 111.571 494.926 106.382 492.252 102.036L490.548 103.084ZM494.24 117.56C494.24 123.163 492.958 127.93 490.436 131.904L492.124 132.976C494.882 128.63 496.24 123.477 496.24 117.56H494.24ZM490.428 131.916C487.971 135.908 484.557 138.982 480.159 141.142L481.041 142.938C485.763 140.618 489.469 137.291 492.132 132.964L490.428 131.916ZM480.159 141.142C475.759 143.304 470.635 144.4 464.76 144.4V146.4C470.885 146.4 476.321 145.256 481.041 142.938L480.159 141.142ZM464.76 144.4H446.4V146.4H464.76V144.4ZM445.4 145.4V179H447.4V145.4H445.4ZM446.4 178H432.24V180H446.4V178ZM446.4 133.8H465.12V131.8H446.4V133.8ZM465.12 133.8C468.455 133.8 471.422 133.132 473.991 131.762L473.049 129.998C470.818 131.188 468.185 131.8 465.12 131.8V133.8ZM473.991 131.762C476.543 130.401 478.558 128.518 480.015 126.119L478.305 125.081C477.042 127.162 475.297 128.799 473.049 129.998L473.991 131.762ZM480.023 126.106C481.486 123.609 482.2 120.709 482.2 117.44H480.2C480.2 120.411 479.554 122.951 478.297 125.094L480.023 126.106ZM482.2 117.44C482.2 114.172 481.486 111.305 480.015 108.881L478.305 109.919C479.554 111.975 480.2 114.468 480.2 117.44H482.2ZM480.023 108.894C478.565 106.408 476.541 104.512 473.967 103.226L473.073 105.014C475.299 106.128 477.035 107.752 478.297 109.906L480.023 108.894ZM473.991 103.238C471.422 101.868 468.455 101.2 465.12 101.2V103.2C468.185 103.2 470.818 103.812 473.049 105.002L473.991 103.238ZM465.12 101.2H446.4V103.2H465.12V101.2ZM445.4 102.2V132.8H447.4V102.2H445.4ZM508.498 179H507.498V180H508.498V179ZM508.498 114.08V113.08H507.498V114.08H508.498ZM521.458 114.08H522.458V113.08H521.458V114.08ZM521.458 127.16L520.61 127.69L522.458 130.647V127.16H521.458ZM520.258 125.24L519.311 124.918L519.159 125.368L519.41 125.77L520.258 125.24ZM527.218 116.12L527.717 116.987L527.725 116.982L527.733 116.977L527.218 116.12ZM542.698 113.24H543.698V112.24H542.698V113.24ZM542.698 125.6V126.6H543.698V125.6H542.698ZM522.058 179V180H523.058V179H522.058ZM509.498 179V114.08H507.498V179H509.498ZM508.498 115.08H521.458V113.08H508.498V115.08ZM520.458 114.08V127.16H522.458V114.08H520.458ZM522.306 126.63L521.106 124.71L519.41 125.77L520.61 127.69L522.306 126.63ZM521.205 125.562C522.584 121.5 524.77 118.681 527.717 116.987L526.72 115.253C523.266 117.239 520.812 120.5 519.311 124.918L521.205 125.562ZM527.733 116.977C530.749 115.168 534.403 114.24 538.738 114.24V112.24C534.113 112.24 530.088 113.232 526.704 115.263L527.733 116.977ZM538.738 114.24H542.698V112.24H538.738V114.24ZM541.698 113.24V125.6H543.698V113.24H541.698ZM542.698 124.6H537.058V126.6H542.698V124.6ZM537.058 124.6C532.351 124.6 528.444 126.08 525.431 129.093L526.845 130.507C529.432 127.92 532.805 126.6 537.058 126.6V124.6ZM525.431 129.093C522.468 132.056 521.058 136.266 521.058 141.56H523.058C523.058 136.614 524.368 132.984 526.845 130.507L525.431 129.093ZM521.058 141.56V179H523.058V141.56H521.058ZM522.058 178H508.498V180H522.058V178ZM566.135 176L565.634 176.866L565.64 176.869L566.135 176ZM553.895 163.88L553.035 164.391L553.895 163.88ZM553.895 129.08L554.751 129.597L554.755 129.591L553.895 129.08ZM566.135 117.08L566.625 117.952L566.635 117.946L566.135 117.08ZM600.455 117.08L599.948 117.942L599.956 117.947L599.964 117.952L600.455 117.08ZM612.575 129.08L611.709 129.581L611.714 129.589L611.718 129.596L612.575 129.08ZM612.575 164L613.435 164.511L612.575 164ZM600.335 176.12L600.825 176.992L600.835 176.986L600.335 176.12ZM593.495 165.08L594.023 165.929L593.495 165.08ZM600.455 157.52L599.574 157.047L599.569 157.055L600.455 157.52ZM600.455 135.56L599.569 136.025L599.574 136.033L599.578 136.042L600.455 135.56ZM573.095 128L572.577 127.144L572.567 127.151L573.095 128ZM566.015 135.56L565.138 135.078L565.134 135.087L565.129 135.095L566.015 135.56ZM566.015 157.52L565.125 157.976L565.131 157.989L565.138 158.002L566.015 157.52ZM573.095 165.08L572.567 165.929L572.577 165.936L573.095 165.08ZM583.295 179.44C577.22 179.44 571.672 178.001 566.629 175.131L565.64 176.869C570.997 179.919 576.889 181.44 583.295 181.44V179.44ZM566.635 175.134C561.664 172.261 557.708 168.343 554.755 163.369L553.035 164.391C556.162 169.657 560.365 173.819 565.634 176.866L566.635 175.134ZM554.755 163.369C551.814 158.417 550.335 152.797 550.335 146.48H548.335C548.335 153.123 549.895 159.103 553.035 164.391L554.755 163.369ZM550.335 146.48C550.335 140.081 551.815 134.463 554.751 129.596L553.038 128.564C549.894 133.777 548.335 139.759 548.335 146.48H550.335ZM554.755 129.591C557.706 124.619 561.66 120.744 566.625 117.952L565.644 116.208C560.37 119.176 556.163 123.301 553.035 128.569L554.755 129.591ZM566.635 117.946C571.593 115.08 577.138 113.64 583.295 113.64V111.64C576.811 111.64 570.917 113.16 565.634 116.214L566.635 117.946ZM583.295 113.64C589.534 113.64 595.076 115.081 599.948 117.942L600.961 116.218C595.753 113.159 589.855 111.64 583.295 111.64V113.64ZM599.964 117.952C604.927 120.743 608.838 124.614 611.709 129.581L613.44 128.579C610.391 123.306 606.222 119.177 600.945 116.208L599.964 117.952ZM611.718 129.596C614.654 134.463 616.135 140.081 616.135 146.48H618.135C618.135 139.759 616.575 133.777 613.431 128.564L611.718 129.596ZM616.135 146.48C616.135 152.879 614.654 158.539 611.715 163.489L613.435 164.511C616.575 159.221 618.135 153.201 618.135 146.48H616.135ZM611.715 163.489C608.762 168.463 604.805 172.381 599.834 175.254L600.835 176.986C606.104 173.939 610.308 169.777 613.435 164.511L611.715 163.489ZM599.844 175.248C594.883 178.039 589.374 179.44 583.295 179.44V181.44C589.695 181.44 595.546 179.961 600.825 176.992L599.844 175.248ZM583.295 168.84C587.302 168.84 590.888 167.878 594.023 165.929L592.967 164.231C590.181 165.962 586.968 166.84 583.295 166.84V168.84ZM594.023 165.929C597.14 163.992 599.581 161.336 601.34 157.985L599.569 157.055C597.969 160.104 595.77 162.488 592.967 164.231L594.023 165.929ZM601.336 157.993C603.181 154.554 604.095 150.709 604.095 146.48H602.095C602.095 150.411 601.248 153.926 599.574 157.047L601.336 157.993ZM604.095 146.48C604.095 142.252 603.181 138.442 601.331 135.078L599.578 136.042C601.248 139.078 602.095 142.548 602.095 146.48H604.095ZM601.34 135.095C599.581 131.744 597.14 129.088 594.023 127.151L592.967 128.849C595.77 130.592 597.969 132.976 599.569 136.025L601.34 135.095ZM594.023 127.151C590.888 125.202 587.302 124.24 583.295 124.24V126.24C586.968 126.24 590.181 127.118 592.967 128.849L594.023 127.151ZM583.295 124.24C579.363 124.24 575.782 125.204 572.577 127.145L573.612 128.855C576.487 127.116 579.706 126.24 583.295 126.24V124.24ZM572.567 127.151C569.454 129.086 566.977 131.735 565.138 135.078L566.891 136.042C568.572 132.985 570.815 130.594 573.623 128.849L572.567 127.151ZM565.129 135.095C563.365 138.456 562.495 142.259 562.495 146.48H564.495C564.495 142.541 565.305 139.064 566.9 136.025L565.129 135.095ZM562.495 146.48C562.495 150.701 563.365 154.54 565.125 157.976L566.905 157.064C565.304 153.94 564.495 150.419 564.495 146.48H562.495ZM565.138 158.002C566.977 161.345 569.454 163.994 572.567 165.929L573.623 164.231C570.815 162.486 568.572 160.095 566.891 157.038L565.138 158.002ZM572.577 165.936C575.782 167.876 579.363 168.84 583.295 168.84V166.84C579.706 166.84 576.487 165.964 573.612 164.225L572.577 165.936ZM643.573 176L643.044 176.849L643.052 176.854L643.061 176.859L643.573 176ZM631.933 163.76L631.056 164.24L631.062 164.25L631.933 163.76ZM632.053 129.2L632.925 129.69L632.053 129.2ZM643.693 117.08L643.175 116.225L643.693 117.08ZM674.053 115.76L673.592 116.647L674.053 115.76ZM683.533 124.4L684.37 124.947L684.721 124.41L684.379 123.867L683.533 124.4ZM681.493 127.52H680.493V130.877L682.33 128.067L681.493 127.52ZM681.493 88.16V87.16H680.493V88.16H681.493ZM694.933 88.16H695.933V87.16H694.933V88.16ZM694.933 179V180H695.933V179H694.933ZM682.093 179H681.093V180H682.093V179ZM682.093 165.8L682.943 165.274L681.093 162.285V165.8H682.093ZM683.653 168.32L684.521 168.816L684.817 168.3L684.503 167.794L683.653 168.32ZM674.053 177.32L673.606 176.426L674.053 177.32ZM671.773 165.08L671.255 164.224L671.245 164.231L671.773 165.08ZM678.853 157.52L677.972 157.047L677.968 157.055L678.853 157.52ZM678.853 135.56L677.968 136.025L677.972 136.033L677.977 136.042L678.853 135.56ZM671.773 128L671.245 128.849L671.255 128.855L671.773 128ZM651.493 128L652.011 128.855L651.493 128ZM644.413 135.56L645.299 136.025L644.413 135.56ZM644.413 157.52L643.523 157.976L643.528 157.985L644.413 157.52ZM651.373 165.08L650.845 165.929L650.855 165.936L651.373 165.08ZM660.373 179.44C654.299 179.44 648.878 178.001 644.086 175.141L643.061 176.859C648.188 179.919 653.968 181.44 660.373 181.44V179.44ZM644.102 175.151C639.368 172.202 635.604 168.247 632.805 163.27L631.062 164.25C634.022 169.513 638.019 173.718 643.044 176.849L644.102 175.151ZM632.811 163.28C630.099 158.321 628.733 152.729 628.733 146.48H626.733C626.733 153.031 628.168 158.959 631.056 164.24L632.811 163.28ZM628.733 146.48C628.733 140.236 630.136 134.647 632.925 129.69L631.182 128.71C628.21 133.993 626.733 139.924 626.733 146.48H628.733ZM632.925 129.69C635.723 124.716 639.483 120.803 644.212 117.935L643.175 116.225C638.143 119.277 634.143 123.444 631.182 128.71L632.925 129.69ZM644.212 117.935C648.923 115.077 654.261 113.64 660.253 113.64V111.64C653.925 111.64 648.223 113.163 643.175 116.225L644.212 117.935ZM660.253 113.64C665.317 113.64 669.755 114.652 673.592 116.647L674.514 114.873C670.352 112.708 665.589 111.64 660.253 111.64V113.64ZM673.592 116.647C677.44 118.649 680.465 121.409 682.687 124.933L684.379 123.867C681.961 120.031 678.666 117.031 674.514 114.873L673.592 116.647ZM682.696 123.853L680.656 126.973L682.33 128.067L684.37 124.947L682.696 123.853ZM682.493 127.52V88.16H680.493V127.52H682.493ZM681.493 89.16H694.933V87.16H681.493V89.16ZM693.933 88.16V179H695.933V88.16H693.933ZM694.933 178H682.093V180H694.933V178ZM683.093 179V165.8H681.093V179H683.093ZM681.243 166.326L682.803 168.846L684.503 167.794L682.943 165.274L681.243 166.326ZM682.785 167.824C680.646 171.567 677.595 174.431 673.606 176.426L674.5 178.214C678.831 176.049 682.18 172.913 684.521 168.816L682.785 167.824ZM673.606 176.426C669.594 178.432 665.188 179.44 660.373 179.44V181.44C665.478 181.44 670.192 180.368 674.5 178.214L673.606 176.426ZM661.693 168.84C665.624 168.84 669.17 167.876 672.301 165.929L671.245 164.231C668.456 165.964 665.282 166.84 661.693 166.84V168.84ZM672.291 165.936C675.49 164 677.975 161.343 679.739 157.985L677.968 157.055C676.371 160.097 674.137 162.48 671.255 164.225L672.291 165.936ZM679.734 157.993C681.58 154.554 682.493 150.709 682.493 146.48H680.493C680.493 150.411 679.647 153.926 677.972 157.047L679.734 157.993ZM682.493 146.48C682.493 142.252 681.58 138.442 679.729 135.078L677.977 136.042C679.647 139.078 680.493 142.548 680.493 146.48H682.493ZM679.739 135.095C677.975 131.737 675.49 129.08 672.291 127.145L671.255 128.855C674.137 130.6 676.371 132.983 677.968 136.025L679.739 135.095ZM672.301 127.151C669.17 125.204 665.624 124.24 661.693 124.24V126.24C665.282 126.24 668.456 127.116 671.245 128.849L672.301 127.151ZM661.693 124.24C657.762 124.24 654.181 125.204 650.975 127.145L652.011 128.855C654.886 127.116 658.105 126.24 661.693 126.24V124.24ZM650.975 127.145C647.777 129.08 645.291 131.737 643.528 135.095L645.299 136.025C646.895 132.983 649.13 130.6 652.011 128.855L650.975 127.145ZM643.528 135.095C641.763 138.456 640.893 142.259 640.893 146.48H642.893C642.893 142.541 643.703 139.064 645.299 136.025L643.528 135.095ZM640.893 146.48C640.893 150.701 641.763 154.54 643.523 157.976L645.303 157.064C643.703 153.94 642.893 150.419 642.893 146.48H640.893ZM643.528 157.985C645.287 161.336 647.728 163.992 650.845 165.929L651.901 164.231C649.098 162.488 646.899 160.104 645.299 157.055L643.528 157.985ZM650.855 165.936C654.064 167.878 657.686 168.84 661.693 168.84V166.84C658.02 166.84 654.762 165.962 651.891 164.225L650.855 165.936ZM721.084 177.2L720.564 178.054L720.571 178.058L720.578 178.062L721.084 177.2ZM712.444 167.96L711.549 168.407L711.555 168.418L711.56 168.429L712.444 167.96ZM709.444 114.08V113.08H708.444V114.08H709.444ZM723.004 114.08H724.004V113.08H723.004V114.08ZM724.804 160.76L725.685 160.288L724.804 160.76ZM729.844 166.04L729.334 166.9L729.346 166.907L729.358 166.914L729.844 166.04ZM744.844 165.92L745.354 166.78L744.844 165.92ZM749.884 160.52L749.008 160.037L749.002 160.049L748.996 160.061L749.884 160.52ZM751.804 114.08V113.08H750.804V114.08H751.804ZM765.244 114.08H766.244V113.08H765.244V114.08ZM765.244 179V180H766.244V179H765.244ZM752.404 179H751.404V180H752.404V179ZM752.404 166.28L753.163 165.629L751.404 163.577V166.28H752.404ZM753.844 167.96L754.779 168.315L754.989 167.76L754.603 167.309L753.844 167.96ZM746.284 177.2L746.807 178.052L746.284 177.2ZM733.924 179.44C729.196 179.44 725.095 178.395 721.59 176.338L720.578 178.062C724.432 180.325 728.892 181.44 733.924 181.44V179.44ZM721.604 176.346C718.082 174.202 715.325 171.257 713.327 167.491L711.56 168.429C713.722 172.503 716.725 175.718 720.564 178.054L721.604 176.346ZM713.338 167.513C711.418 163.673 710.444 159.23 710.444 154.16H708.444C708.444 159.49 709.469 164.247 711.549 168.407L713.338 167.513ZM710.444 154.16V114.08H708.444V154.16H710.444ZM709.444 115.08H723.004V113.08H709.444V115.08ZM722.004 114.08V152.96H724.004V114.08H722.004ZM722.004 152.96C722.004 156.058 722.633 158.825 723.922 161.232L725.685 160.288C724.575 158.215 724.004 155.782 724.004 152.96H722.004ZM723.922 161.232C725.207 163.631 727.015 165.526 729.334 166.9L730.354 165.18C728.353 163.994 726.8 162.369 725.685 160.288L723.922 161.232ZM729.358 166.914C731.686 168.207 734.337 168.84 737.284 168.84V166.84C734.631 166.84 732.322 166.273 730.329 165.166L729.358 166.914ZM737.284 168.84C740.316 168.84 743.018 168.165 745.354 166.78L744.334 165.06C742.35 166.235 740.011 166.84 737.284 166.84V168.84ZM745.354 166.78C747.681 165.401 749.49 163.459 750.772 160.979L748.996 160.061C747.878 162.221 746.326 163.879 744.334 165.06L745.354 166.78ZM750.759 161.003C752.134 158.511 752.804 155.619 752.804 152.36H750.804C750.804 155.341 750.193 157.889 749.008 160.037L750.759 161.003ZM752.804 152.36V114.08H750.804V152.36H752.804ZM751.804 115.08H765.244V113.08H751.804V115.08ZM764.244 114.08V179H766.244V114.08H764.244ZM765.244 178H752.404V180H765.244V178ZM753.404 179V166.28H751.404V179H753.404ZM751.645 166.931L753.085 168.611L754.603 167.309L753.163 165.629L751.645 166.931ZM752.909 167.605C751.464 171.406 749.085 174.308 745.761 176.348L746.807 178.052C750.522 175.772 753.183 172.514 754.779 168.315L752.909 167.605ZM745.761 176.348C742.42 178.398 738.486 179.44 733.924 179.44V181.44C738.801 181.44 743.108 180.322 746.807 178.052L745.761 176.348ZM794.636 176L794.114 176.853L794.122 176.858L794.13 176.862L794.636 176ZM782.756 163.76L781.885 164.25L781.891 164.261L782.756 163.76ZM782.756 129.08L783.628 129.57L782.756 129.08ZM794.636 117.08L795.132 117.948L795.143 117.942L794.636 117.08ZM824.276 115.04L823.892 115.963L823.9 115.967L823.908 115.97L824.276 115.04ZM834.236 121.4L833.539 122.117L833.55 122.127L834.236 121.4ZM840.596 130.88L841.018 131.787L841.86 131.395L841.532 130.527L840.596 130.88ZM828.716 136.4L827.789 136.775L828.184 137.75L829.138 137.307L828.716 136.4ZM822.116 128.36L821.541 129.178L821.554 129.187L821.567 129.195L822.116 128.36ZM801.956 128L802.478 128.853L802.484 128.849L801.956 128ZM795.116 135.56L796.002 136.025L796.006 136.016L795.116 135.56ZM795.116 157.52L794.226 157.976L794.231 157.985L795.116 157.52ZM801.956 165.08L801.418 165.923L801.428 165.929L801.956 165.08ZM822.116 164.84L822.687 165.661L822.691 165.658L822.116 164.84ZM828.716 156.56L829.145 155.657L828.198 155.207L827.794 156.174L828.716 156.56ZM840.596 162.2L841.533 162.549L841.853 161.69L841.025 161.297L840.596 162.2ZM834.356 171.56L835.053 172.277L835.053 172.277L834.356 171.56ZM811.916 179.44C805.594 179.44 800.013 177.998 795.143 175.138L794.13 176.862C799.34 179.922 805.278 181.44 811.916 181.44V179.44ZM795.159 175.147C790.343 172.196 786.5 168.238 783.622 163.259L781.891 164.261C784.932 169.522 789.009 173.724 794.114 176.853L795.159 175.147ZM783.628 163.27C780.84 158.314 779.436 152.686 779.436 146.36H777.436C777.436 152.994 778.912 158.966 781.885 164.25L783.628 163.27ZM779.436 146.36C779.436 140.116 780.839 134.527 783.628 129.57L781.885 128.59C778.913 133.873 777.436 139.804 777.436 146.36H779.436ZM783.628 129.57C786.42 124.606 790.251 120.737 795.132 117.948L794.14 116.212C788.941 119.183 784.852 123.314 781.885 128.59L783.628 129.57ZM795.143 117.942C800.013 115.082 805.594 113.64 811.916 113.64V111.64C805.278 111.64 799.34 113.158 794.13 116.218L795.143 117.942ZM811.916 113.64C816.192 113.64 820.18 114.417 823.892 115.963L824.661 114.117C820.692 112.463 816.441 111.64 811.916 111.64V113.64ZM823.908 115.97C827.633 117.444 830.839 119.494 833.539 122.117L834.933 120.683C832.033 117.866 828.6 115.676 824.644 114.11L823.908 115.97ZM833.55 122.127C836.323 124.746 838.356 127.779 839.661 131.233L841.532 130.527C840.117 126.781 837.91 123.494 834.923 120.673L833.55 122.127ZM840.175 129.973L828.295 135.493L829.138 137.307L841.018 131.787L840.175 129.973ZM829.643 136.025C828.207 132.476 825.875 129.636 822.666 127.525L821.567 129.195C824.438 131.084 826.506 133.604 827.789 136.775L829.643 136.025ZM822.691 127.542C819.552 125.336 815.949 124.24 811.916 124.24V126.24C815.564 126.24 818.76 127.224 821.541 129.178L822.691 127.542ZM811.916 124.24C808.061 124.24 804.556 125.207 801.428 127.151L802.484 128.849C805.277 127.113 808.412 126.24 811.916 126.24V124.24ZM801.435 127.147C798.383 129.011 795.982 131.676 794.226 135.104L796.006 136.016C797.61 132.884 799.769 130.509 802.478 128.853L801.435 127.147ZM794.231 135.095C792.466 138.456 791.596 142.259 791.596 146.48H793.596C793.596 142.541 794.406 139.064 796.002 136.025L794.231 135.095ZM791.596 146.48C791.596 150.701 792.466 154.54 794.226 157.976L796.006 157.064C794.406 153.94 793.596 150.419 793.596 146.48H791.596ZM794.231 157.985C795.987 161.33 798.383 163.984 801.418 165.923L802.495 164.237C799.77 162.496 797.606 160.11 796.002 157.055L794.231 157.985ZM801.428 165.929C804.556 167.873 808.061 168.84 811.916 168.84V166.84C808.412 166.84 805.277 165.967 802.484 164.231L801.428 165.929ZM811.916 168.84C816.015 168.84 819.62 167.791 822.687 165.661L821.546 164.019C818.853 165.889 815.657 166.84 811.916 166.84V168.84ZM822.691 165.658C825.81 163.466 828.128 160.554 829.639 156.946L827.794 156.174C826.424 159.446 824.342 162.054 821.541 164.022L822.691 165.658ZM828.287 157.463L840.167 163.103L841.025 161.297L829.145 155.657L828.287 157.463ZM839.659 161.851C838.435 165.14 836.443 168.137 833.659 170.843L835.053 172.277C838.03 169.383 840.197 166.14 841.533 162.549L839.659 161.851ZM833.659 170.843C830.955 173.469 827.743 175.562 824.012 177.117L824.781 178.963C828.729 177.318 832.157 175.091 835.053 172.277L833.659 170.843ZM824.012 177.117C820.303 178.662 816.274 179.44 811.916 179.44V181.44C816.518 181.44 820.81 180.618 824.781 178.963L824.012 177.117ZM866.09 173.96L866.804 173.26L866.09 173.96ZM860.45 126.32H861.45V125.32H860.45V126.32ZM849.05 126.32H848.05V127.32H849.05V126.32ZM849.05 114.08V113.08H848.05V114.08H849.05ZM857.93 111.44L857.206 110.75L857.93 111.44ZM860.45 99.2V98.2H859.45V99.2H860.45ZM874.01 99.2H875.01V98.2H874.01V99.2ZM874.01 114.08H873.01V115.08H874.01V114.08ZM888.77 114.08H889.77V113.08H888.77V114.08ZM888.77 126.32V127.32H889.77V126.32H888.77ZM874.01 126.32V125.32H873.01V126.32H874.01ZM875.09 162.92L874.178 163.33L874.182 163.339L874.186 163.348L875.09 162.92ZM878.57 166.52L878.088 167.396L878.105 167.406L878.122 167.414L878.57 166.52ZM886.97 167.6L886.87 166.605L886.97 167.6ZM889.25 167.36H890.25V166.243L889.139 166.366L889.25 167.36ZM889.25 179L889.391 179.99L890.25 179.867V179H889.25ZM885.53 179.48L885.647 180.473L885.53 179.48ZM881.93 178.72C875.323 178.72 870.329 176.86 866.804 173.26L865.375 174.66C869.37 178.74 874.936 180.72 881.93 180.72V178.72ZM866.804 173.26C863.277 169.658 861.45 164.539 861.45 157.76H859.45C859.45 164.901 861.383 170.582 865.375 174.66L866.804 173.26ZM861.45 157.76V126.32H859.45V157.76H861.45ZM860.45 125.32H849.05V127.32H860.45V125.32ZM850.05 126.32V114.08H848.05V126.32H850.05ZM849.05 115.08H850.85V113.08H849.05V115.08ZM850.85 115.08C854.09 115.08 856.74 114.135 858.653 112.13L857.206 110.75C855.76 112.265 853.689 113.08 850.85 113.08V115.08ZM858.653 112.13C860.552 110.141 861.45 107.47 861.45 104.24H859.45C859.45 107.09 858.667 109.219 857.206 110.75L858.653 112.13ZM861.45 104.24V99.2H859.45V104.24H861.45ZM860.45 100.2H874.01V98.2H860.45V100.2ZM873.01 99.2V114.08H875.01V99.2H873.01ZM874.01 115.08H888.77V113.08H874.01V115.08ZM887.77 114.08V126.32H889.77V114.08H887.77ZM888.77 125.32H874.01V127.32H888.77V125.32ZM873.01 126.32V157.16H875.01V126.32H873.01ZM873.01 157.16C873.01 159.504 873.386 161.571 874.178 163.33L876.002 162.51C875.353 161.069 875.01 159.296 875.01 157.16H873.01ZM874.186 163.348C875.004 165.075 876.32 166.424 878.088 167.396L879.052 165.644C877.619 164.856 876.616 163.805 875.993 162.492L874.186 163.348ZM878.122 167.414C879.908 168.307 882.157 168.72 884.81 168.72V166.72C882.343 166.72 880.431 166.333 879.017 165.626L878.122 167.414ZM884.81 168.72C885.49 168.72 886.244 168.678 887.069 168.595L886.87 166.605C886.095 166.682 885.409 166.72 884.81 166.72V168.72ZM887.069 168.595C887.872 168.515 888.636 168.434 889.36 168.354L889.139 166.366C888.423 166.446 887.667 166.525 886.87 166.605L887.069 168.595ZM888.25 167.36V179H890.25V167.36H888.25ZM889.108 178.01C887.998 178.169 886.766 178.328 885.413 178.487L885.647 180.473C887.013 180.312 888.261 180.151 889.391 179.99L889.108 178.01ZM885.413 178.487C884.08 178.644 882.921 178.72 881.93 178.72V180.72C883.019 180.72 884.259 180.636 885.647 180.473L885.413 178.487ZM432.24 330H431.24V331H432.24V330ZM432.24 240.6V239.6H431.24V240.6H432.24ZM485.64 246.24L485.156 247.115L485.168 247.122L485.64 246.24ZM501.6 308.64L502.473 309.128L502.475 309.124L501.6 308.64ZM485.64 324.36L485.16 323.482L485.156 323.485L485.64 324.36ZM446.4 317.4H445.4V318.4H446.4V317.4ZM478.2 313.44L477.712 312.567L477.705 312.571L478.2 313.44ZM489.12 302.28L488.238 301.809L489.12 302.28ZM489 268.32L488.118 268.791L488.122 268.799L488.127 268.808L489 268.32ZM478.2 257.16L478.695 256.291L478.2 257.16ZM446.4 253.2V252.2H445.4V253.2H446.4ZM433.24 330V240.6H431.24V330H433.24ZM432.24 241.6H461.52V239.6H432.24V241.6ZM461.52 241.6C470.664 241.6 478.531 243.452 485.156 247.115L486.124 245.365C479.149 241.508 470.936 239.6 461.52 239.6V241.6ZM485.168 247.122C491.882 250.713 497.062 255.777 500.727 262.328L502.473 261.352C498.618 254.463 493.158 249.127 486.112 245.358L485.168 247.122ZM500.727 262.328C504.392 268.878 506.24 276.505 506.24 285.24H508.24C508.24 276.215 506.328 268.242 502.473 261.352L500.727 262.328ZM506.24 285.24C506.24 293.893 504.393 301.523 500.725 308.156L502.475 309.124C506.327 302.157 508.24 294.186 508.24 285.24H506.24ZM500.727 308.152C497.061 314.704 491.879 319.811 485.16 323.482L486.12 325.238C493.161 321.389 498.619 316.016 502.473 309.128L500.727 308.152ZM485.156 323.485C478.531 327.148 470.664 329 461.52 329V331C470.936 331 479.149 329.092 486.124 325.235L485.156 323.485ZM461.52 329H432.24V331H461.52V329ZM446.4 318.4H461.76V316.4H446.4V318.4ZM461.76 318.4C468.221 318.4 473.878 317.049 478.695 314.309L477.705 312.571C473.242 315.111 467.939 316.4 461.76 316.4V318.4ZM478.688 314.313C483.576 311.579 487.353 307.719 490.002 302.751L488.238 301.809C485.767 306.441 482.264 310.021 477.712 312.567L478.688 314.313ZM490.002 302.751C492.654 297.779 493.96 291.931 493.96 285.24H491.96C491.96 291.669 490.706 297.181 488.238 301.809L490.002 302.751ZM493.96 285.24C493.96 278.545 492.612 272.73 489.873 267.832L488.127 268.808C490.668 273.35 491.96 278.815 491.96 285.24H493.96ZM489.882 267.849C487.235 262.886 483.502 259.026 478.695 256.291L477.705 258.029C482.178 260.574 485.645 264.154 488.118 268.791L489.882 267.849ZM478.695 256.291C473.878 253.551 468.221 252.2 461.76 252.2V254.2C467.939 254.2 473.242 255.489 477.705 258.029L478.695 256.291ZM461.76 252.2H446.4V254.2H461.76V252.2ZM445.4 253.2V317.4H447.4V253.2H445.4ZM533.065 327L532.543 327.853L532.551 327.858L532.559 327.862L533.065 327ZM521.425 314.76L520.545 315.234L520.548 315.24L521.425 314.76ZM521.425 279.96L520.557 279.464L520.551 279.474L521.425 279.96ZM532.945 268.08L533.46 268.938L533.47 268.931L532.945 268.08ZM562.345 266.16L561.944 267.076H561.945L562.345 266.16ZM572.065 273.12L571.319 273.786L571.328 273.796L572.065 273.12ZM578.065 283.08L577.125 283.42L577.128 283.429L577.131 283.438L578.065 283.08ZM580.105 298.32L581.103 298.391L580.105 298.32ZM579.625 301.44V302.44H580.406L580.595 301.683L579.625 301.44ZM527.905 301.44H526.905V302.44H527.905V301.44ZM527.905 290.64V289.64H526.905V290.64H527.905ZM571.945 290.64L572.55 291.436L574.916 289.64H571.945V290.64ZM565.465 295.56L564.486 295.36L563.954 297.963L566.07 296.356L565.465 295.56ZM564.625 285.12L563.7 285.5L563.706 285.514L563.712 285.528L564.625 285.12ZM558.625 277.8L558.054 278.62L558.068 278.63L558.082 278.64L558.625 277.8ZM539.665 277.8L540.197 278.647L540.206 278.641L540.214 278.636L539.665 277.8ZM533.185 285.48L534.093 285.9L534.096 285.892L533.185 285.48ZM531.385 297.48L532.381 297.571L532.388 297.492L532.383 297.412L531.385 297.48ZM533.185 309L532.287 309.438L532.291 309.447L532.295 309.456L533.185 309ZM540.145 316.68L539.617 317.529L539.628 317.535L540.145 316.68ZM560.425 316.8L559.893 315.953L559.882 315.96L560.425 316.8ZM567.025 309.96L567.465 309.062L566.622 308.65L566.157 309.464L567.025 309.96ZM578.065 315.36L578.987 315.748L579.354 314.877L578.505 314.462L578.065 315.36ZM572.065 323.64L572.738 324.38L572.739 324.379L572.065 323.64ZM562.465 329.4L562.812 330.338L562.823 330.334L562.465 329.4ZM550.345 330.44C544.024 330.44 538.442 328.998 533.572 326.138L532.559 327.862C537.769 330.922 543.707 332.44 550.345 332.44V330.44ZM533.588 326.147C528.777 323.199 525.019 319.248 522.303 314.28L520.548 315.24C523.431 320.512 527.433 324.721 532.543 327.853L533.588 326.147ZM522.306 314.286C519.591 309.244 518.225 303.609 518.225 297.36H516.225C516.225 303.911 517.66 309.876 520.545 315.234L522.306 314.286ZM518.225 297.36C518.225 290.946 519.593 285.318 522.299 280.446L520.551 279.474C517.658 284.682 516.225 290.654 516.225 297.36H518.225ZM522.294 280.456C525.092 275.559 528.812 271.726 533.46 268.937L532.431 267.223C527.478 270.194 523.519 274.281 520.557 279.464L522.294 280.456ZM533.47 268.931C538.1 266.076 543.356 264.64 549.265 264.64V262.64C543.015 262.64 537.391 264.164 532.42 267.229L533.47 268.931ZM549.265 264.64C554.03 264.64 558.25 265.46 561.944 267.076L562.746 265.244C558.761 263.5 554.261 262.64 549.265 262.64V264.64ZM561.945 267.076C565.66 268.702 568.78 270.939 571.319 273.786L572.812 272.454C570.07 269.381 566.71 266.978 562.746 265.244L561.945 267.076ZM571.328 273.796C573.877 276.576 575.809 279.781 577.125 283.42L579.006 282.74C577.602 278.859 575.534 275.424 572.802 272.444L571.328 273.796ZM577.131 283.438C578.525 287.077 579.225 290.956 579.225 295.08H581.225C581.225 290.724 580.485 286.602 578.999 282.722L577.131 283.438ZM579.225 295.08C579.225 296.094 579.186 297.151 579.108 298.249L581.103 298.391C581.184 297.249 581.225 296.146 581.225 295.08H579.225ZM579.108 298.249C579.031 299.319 578.879 300.301 578.655 301.197L580.595 301.683C580.851 300.659 581.019 299.561 581.103 298.391L579.108 298.249ZM579.625 300.44H527.905V302.44H579.625V300.44ZM528.905 301.44V290.64H526.905V301.44H528.905ZM527.905 291.64H571.945V289.64H527.905V291.64ZM571.341 289.844L564.861 294.764L566.07 296.356L572.55 291.436L571.341 289.844ZM566.445 295.76C567.278 291.677 567 287.978 565.538 284.712L563.712 285.528C564.971 288.342 565.252 291.603 564.486 295.36L566.445 295.76ZM565.55 284.74C564.196 281.44 562.067 278.836 559.169 276.96L558.082 278.64C560.624 280.284 562.494 282.56 563.7 285.5L565.55 284.74ZM559.197 276.98C556.37 275.009 553.045 274.04 549.265 274.04V276.04C552.686 276.04 555.601 276.911 558.054 278.62L559.197 276.98ZM549.265 274.04C545.485 274.04 542.092 275.009 539.116 276.964L540.214 278.636C542.839 276.911 545.845 276.04 549.265 276.04V274.04ZM539.133 276.953C536.148 278.83 533.865 281.55 532.274 285.068L534.096 285.892C535.545 282.69 537.582 280.29 540.197 278.647L539.133 276.953ZM532.278 285.06C530.669 288.532 530.06 292.71 530.388 297.548L532.383 297.412C532.071 292.81 532.662 288.988 534.093 285.9L532.278 285.06ZM530.389 297.389C529.976 301.933 530.591 305.963 532.287 309.438L534.084 308.562C532.58 305.477 531.994 301.827 532.381 297.571L530.389 297.389ZM532.295 309.456C534.053 312.888 536.494 315.588 539.617 317.529L540.673 315.831C537.876 314.092 535.678 311.672 534.075 308.544L532.295 309.456ZM539.628 317.535C542.836 319.478 546.458 320.44 550.465 320.44V318.44C546.793 318.44 543.534 317.562 540.663 315.824L539.628 317.535ZM550.465 320.44C554.537 320.44 558.056 319.524 560.969 317.64L559.882 315.96C557.355 317.596 554.233 318.44 550.465 318.44V320.44ZM560.957 317.647C563.893 315.802 566.21 313.403 567.894 310.456L566.157 309.464C564.641 312.117 562.558 314.279 559.893 315.953L560.957 317.647ZM566.586 310.858L577.626 316.258L578.505 314.462L567.465 309.062L566.586 310.858ZM577.144 314.972C575.926 317.864 574.017 320.507 571.392 322.901L572.739 324.379C575.554 321.813 577.645 318.936 578.987 315.748L577.144 314.972ZM571.393 322.9C568.856 325.206 565.766 327.065 562.108 328.466L562.823 330.334C566.684 328.855 569.995 326.874 572.738 324.38L571.393 322.9ZM562.119 328.462C558.562 329.776 554.641 330.44 550.345 330.44V332.44C554.849 332.44 559.008 331.744 562.812 330.338L562.119 328.462ZM599.939 326.52L599.387 327.354L599.394 327.358L599.939 326.52ZM589.499 313.32L589.073 312.415L588.248 312.804L588.559 313.661L589.499 313.32ZM599.939 308.4L600.841 307.969L600.412 307.072L599.513 307.495L599.939 308.4ZM607.139 317.16L606.56 317.975L606.57 317.982L607.139 317.16ZM625.259 318.24L625.843 319.052L625.259 318.24ZM626.939 308.52L626.176 309.166L626.189 309.181L626.202 309.196L626.939 308.52ZM623.579 306L623.132 306.894L623.143 306.9L623.153 306.905L623.579 306ZM619.619 304.56L619.347 305.522L619.369 305.528L619.39 305.533L619.619 304.56ZM609.419 301.68L609.144 302.642L609.147 302.642L609.419 301.68ZM596.819 294.48L596.049 295.118L596.058 295.129L596.066 295.139L596.819 294.48ZM595.739 272.88L596.561 273.45L596.568 273.44L595.739 272.88ZM604.019 266.04L603.605 265.13L604.019 266.04ZM631.739 268.08L631.201 268.923L631.212 268.93L631.739 268.08ZM641.579 280.2L642.005 281.105L642.835 280.714L642.517 279.854L641.579 280.2ZM631.139 285.12L630.214 285.5L630.613 286.473L631.565 286.025L631.139 285.12ZM625.019 277.68L624.459 278.508L624.47 278.516L625.019 277.68ZM608.699 277.08L609.311 277.871L609.322 277.863L609.332 277.854L608.699 277.08ZM607.259 286.32L606.466 286.93L606.478 286.945L606.491 286.96L607.259 286.32ZM610.379 288.72L609.932 289.614L609.955 289.626L609.978 289.636L610.379 288.72ZM614.339 290.16L614.622 289.201L614.621 289.201L614.339 290.16ZM624.899 293.28L624.616 294.239L624.626 294.242L624.899 293.28ZM637.259 300.48L636.508 301.14L636.516 301.149L637.259 300.48ZM638.459 322.2L637.641 321.625L637.638 321.63L638.459 322.2ZM630.059 329.04L630.465 329.954L630.474 329.95L630.482 329.946L630.059 329.04ZM617.459 330.44C610.992 330.44 605.346 328.845 600.485 325.682L599.394 327.358C604.613 330.755 610.646 332.44 617.459 332.44V330.44ZM600.491 325.686C595.707 322.523 592.365 318.295 590.439 312.979L588.559 313.661C590.633 319.385 594.251 323.957 599.387 327.354L600.491 325.686ZM589.925 314.225L600.365 309.305L599.513 307.495L589.073 312.415L589.925 314.225ZM599.037 308.831C600.863 312.65 603.369 315.708 606.56 317.975L607.718 316.345C604.829 314.292 602.535 311.51 600.841 307.969L599.037 308.831ZM606.57 317.982C609.855 320.257 613.494 321.4 617.459 321.4V319.4C613.904 319.4 610.663 318.383 607.708 316.338L606.57 317.982ZM617.459 321.4C620.806 321.4 623.629 320.646 625.843 319.052L624.675 317.428C622.889 318.714 620.512 319.4 617.459 319.4V321.4ZM625.843 319.052C628.106 317.422 629.259 315.159 629.259 312.36H627.259C627.259 314.521 626.412 316.178 624.675 317.428L625.843 319.052ZM629.259 312.36C629.259 310.57 628.762 309.029 627.676 307.844L626.202 309.196C626.876 309.931 627.259 310.95 627.259 312.36H629.259ZM627.702 307.874C626.721 306.714 625.481 305.79 624.005 305.095L623.153 306.905C624.397 307.49 625.398 308.246 626.176 309.166L627.702 307.874ZM624.026 305.106C622.679 304.432 621.285 303.925 619.848 303.587L619.39 305.533C620.673 305.835 621.92 306.288 623.132 306.894L624.026 305.106ZM619.891 303.598L609.691 300.718L609.147 302.642L619.347 305.522L619.891 303.598ZM609.694 300.718C604.213 299.152 600.206 296.832 597.572 293.821L596.066 295.139C599.032 298.528 603.425 301.008 609.144 302.642L609.694 300.718ZM597.589 293.842C595.02 290.744 593.739 287.17 593.739 283.08H591.739C591.739 287.63 593.178 291.656 596.049 295.118L597.589 293.842ZM593.739 283.08C593.739 279.339 594.69 276.143 596.56 273.45L594.918 272.31C592.788 275.377 591.739 278.981 591.739 283.08H593.739ZM596.568 273.44C598.456 270.645 601.066 268.481 604.433 266.95L603.605 265.13C599.932 266.799 597.022 269.195 594.91 272.32L596.568 273.44ZM604.433 266.95C607.806 265.417 611.622 264.64 615.899 264.64V262.64C611.376 262.64 607.272 263.463 603.605 265.13L604.433 266.95ZM615.899 264.64C621.644 264.64 626.734 266.073 631.201 268.923L632.277 267.237C627.464 264.167 621.995 262.64 615.899 262.64V264.64ZM631.212 268.93C635.66 271.69 638.797 275.552 640.641 280.546L642.517 279.854C640.521 274.448 637.099 270.23 632.266 267.23L631.212 268.93ZM641.153 279.295L630.713 284.215L631.565 286.025L642.005 281.105L641.153 279.295ZM632.064 284.74C630.708 281.435 628.538 278.796 625.568 276.844L624.47 278.516C627.1 280.244 629.01 282.565 630.214 285.5L632.064 284.74ZM625.579 276.852C622.686 274.894 619.409 273.92 615.779 273.92V275.92C619.029 275.92 621.912 276.786 624.459 278.508L625.579 276.852ZM615.779 273.92C612.659 273.92 610.052 274.681 608.066 276.306L609.332 277.854C610.866 276.599 612.979 275.92 615.779 275.92V273.92ZM608.088 276.289C606.081 277.84 605.059 279.933 605.059 282.48H607.059C607.059 280.547 607.798 279.04 609.311 277.871L608.088 276.289ZM605.059 282.48C605.059 284.184 605.511 285.688 606.466 286.93L608.052 285.71C607.407 284.872 607.059 283.816 607.059 282.48H605.059ZM606.491 286.96C607.391 288.04 608.546 288.922 609.932 289.614L610.826 287.826C609.652 287.238 608.727 286.52 608.027 285.68L606.491 286.96ZM609.978 289.636C611.297 290.213 612.657 290.708 614.057 291.119L614.621 289.201C613.301 288.812 612.021 288.347 610.78 287.804L609.978 289.636ZM614.056 291.119L624.616 294.239L625.182 292.321L614.622 289.201L614.056 291.119ZM624.626 294.242C629.852 295.724 633.786 298.04 636.508 301.14L638.01 299.82C634.973 296.36 630.666 293.876 625.172 292.318L624.626 294.242ZM636.516 301.149C639.223 304.157 640.579 307.756 640.579 312H642.579C642.579 307.284 641.055 303.203 638.002 299.811L636.516 301.149ZM640.579 312C640.579 315.648 639.595 318.844 637.641 321.625L639.277 322.775C641.483 319.636 642.579 316.032 642.579 312H640.579ZM637.638 321.63C635.751 324.346 633.098 326.518 629.636 328.134L630.482 329.946C634.22 328.202 637.167 325.814 639.28 322.77L637.638 321.63ZM629.653 328.126C626.206 329.658 622.149 330.44 617.459 330.44V332.44C622.369 332.44 626.713 331.622 630.465 329.954L629.653 328.126ZM654.865 330H653.865V331H654.865V330ZM654.865 265.08V264.08H653.865V265.08H654.865ZM668.425 265.08H669.425V264.08H668.425V265.08ZM668.425 330V331H669.425V330H668.425ZM654.865 256.2H653.865V257.2H654.865V256.2ZM654.865 240.6V239.6H653.865V240.6H654.865ZM668.425 240.6H669.425V239.6H668.425V240.6ZM668.425 256.2V257.2H669.425V256.2H668.425ZM655.865 330V265.08H653.865V330H655.865ZM654.865 266.08H668.425V264.08H654.865V266.08ZM667.425 265.08V330H669.425V265.08H667.425ZM668.425 329H654.865V331H668.425V329ZM655.865 256.2V240.6H653.865V256.2H655.865ZM654.865 241.6H668.425V239.6H654.865V241.6ZM667.425 240.6V256.2H669.425V240.6H667.425ZM668.425 255.2H654.865V257.2H668.425V255.2ZM702.519 354.12L702.875 353.185L702.519 354.12ZM692.199 347.76L692.886 347.033L692.881 347.028L692.875 347.023L692.199 347.76ZM685.719 338.4L685.337 337.476L684.424 337.854L684.791 338.771L685.719 338.4ZM698.199 333.24L699.138 332.894L698.778 331.919L697.817 332.316L698.199 333.24ZM704.319 340.8L703.759 341.629L703.77 341.635L704.319 340.8ZM724.719 341.76L724.294 340.855L724.283 340.86L724.272 340.866L724.719 341.76ZM731.199 336L730.359 335.458L730.355 335.464L730.351 335.47L731.199 336ZM733.599 312.36L734.354 311.704L732.599 309.686V312.36H733.599ZM735.999 315.12L736.88 315.594L737.208 314.985L736.754 314.464L735.999 315.12ZM726.639 324.6L726.164 323.72L726.157 323.724L726.639 324.6ZM697.119 323.64L696.616 324.504L697.119 323.64ZM685.719 312.12L684.846 312.607L684.852 312.618L685.719 312.12ZM685.719 279.24L684.856 278.736L684.849 278.747L685.719 279.24ZM696.999 267.84L697.51 268.7L696.999 267.84ZM726.399 266.88L725.909 267.752L725.92 267.758L725.931 267.763L726.399 266.88ZM735.999 276L736.881 276.472L737.153 275.964L736.849 275.473L735.999 276ZM734.199 279.36H733.199L735.081 279.832L734.199 279.36ZM734.199 265.08V264.08H733.199V265.08H734.199ZM747.039 265.08H748.039V264.08H747.039V265.08ZM742.959 342L742.109 341.474L742.103 341.483L742.098 341.492L742.959 342ZM731.919 352.56L732.396 353.439L731.919 352.56ZM724.479 312.72L724.994 313.577L725.003 313.572L725.012 313.567L724.479 312.72ZM731.079 305.76L730.21 305.266L730.205 305.274L731.079 305.76ZM724.359 278.88L723.827 279.727L723.836 279.732L723.845 279.737L724.359 278.88ZM705.039 278.88L705.543 279.744L705.552 279.739L705.561 279.733L705.039 278.88ZM698.199 285.84L697.33 285.346L697.325 285.354L698.199 285.84ZM698.199 305.64L697.32 306.116L697.325 306.125L697.33 306.134L698.199 305.64ZM705.039 312.72L704.518 313.573L704.527 313.579L704.535 313.584L705.039 312.72ZM715.599 355.4C710.988 355.4 706.75 354.658 702.875 353.185L702.164 355.055C706.289 356.622 710.77 357.4 715.599 357.4V355.4ZM702.875 353.185C698.988 351.708 695.663 349.656 692.886 347.033L691.513 348.487C694.496 351.304 698.051 353.492 702.164 355.055L702.875 353.185ZM692.875 347.023C690.105 344.483 688.032 341.488 686.648 338.029L684.791 338.771C686.287 342.512 688.534 345.757 691.524 348.497L692.875 347.023ZM686.101 339.324L698.581 334.164L697.817 332.316L685.337 337.476L686.101 339.324ZM697.261 333.586C698.461 336.843 700.645 339.524 703.76 341.629L704.879 339.971C702.074 338.076 700.178 335.717 699.138 332.894L697.261 333.586ZM703.77 341.635C707.004 343.763 710.925 344.8 715.479 344.8V342.8C711.233 342.8 707.714 341.837 704.869 339.965L703.77 341.635ZM715.479 344.8C719.054 344.8 722.29 344.092 725.167 342.654L724.272 340.866C721.708 342.148 718.785 342.8 715.479 342.8V344.8ZM725.145 342.665C728.04 341.303 730.346 339.252 732.047 336.53L730.351 335.47C728.853 337.868 726.839 339.657 724.294 340.855L725.145 342.665ZM732.04 336.542C733.763 333.872 734.599 330.675 734.599 327H732.599C732.599 330.365 731.836 333.168 730.359 335.458L732.04 336.542ZM734.599 327V312.36H732.599V327H734.599ZM732.845 313.016L735.245 315.776L736.754 314.464L734.354 311.704L732.845 313.016ZM735.119 314.646C732.968 318.641 729.985 321.657 726.164 323.72L727.115 325.48C731.293 323.223 734.551 319.919 736.88 315.594L735.119 314.646ZM726.157 323.724C722.4 325.794 718.129 326.84 713.319 326.84V328.84C718.43 328.84 723.039 327.726 727.122 325.476L726.157 323.724ZM713.319 326.84C707.482 326.84 702.258 325.48 697.623 322.776L696.616 324.504C701.581 327.4 707.157 328.84 713.319 328.84V326.84ZM697.623 322.776C692.976 320.066 689.301 316.353 686.587 311.622L684.852 312.618C687.738 317.647 691.662 321.615 696.616 324.504L697.623 322.776ZM686.593 311.633C683.963 306.915 682.639 301.605 682.639 295.68H680.639C680.639 301.915 682.036 307.565 684.846 312.607L686.593 311.633ZM682.639 295.68C682.639 289.672 683.964 284.366 686.589 279.733L684.849 278.747C682.035 283.714 680.639 289.368 680.639 295.68H682.639ZM686.583 279.744C689.299 275.089 692.938 271.412 697.51 268.7L696.489 266.98C691.621 269.868 687.74 273.791 684.856 278.736L686.583 279.744ZM697.51 268.7C702.059 266.001 707.279 264.64 713.199 264.64V262.64C706.96 262.64 701.38 264.079 696.489 266.98L697.51 268.7ZM713.199 264.64C718.01 264.64 722.237 265.686 725.909 267.752L726.89 266.008C722.882 263.754 718.309 262.64 713.199 262.64V264.64ZM725.931 267.763C729.685 269.755 732.757 272.668 735.149 276.527L736.849 275.473C734.282 271.332 730.954 268.165 726.868 265.997L725.931 267.763ZM735.118 275.528L733.318 278.888L735.081 279.832L736.881 276.472L735.118 275.528ZM735.199 279.36V265.08H733.199V279.36H735.199ZM734.199 266.08H747.039V264.08H734.199V266.08ZM746.039 265.08V327H748.039V265.08H746.039ZM746.039 327C746.039 332.43 744.723 337.245 742.109 341.474L743.81 342.526C746.636 337.955 748.039 332.77 748.039 327H746.039ZM742.098 341.492C739.553 345.811 736.008 349.205 731.443 351.681L732.396 353.439C737.27 350.795 741.086 347.149 743.821 342.508L742.098 341.492ZM731.443 351.681C726.889 354.151 721.618 355.4 715.599 355.4V357.4C721.901 357.4 727.509 356.089 732.396 353.439L731.443 351.681ZM714.879 316.24C718.641 316.24 722.023 315.36 724.994 313.577L723.965 311.863C721.336 313.44 718.317 314.24 714.879 314.24V316.24ZM725.012 313.567C727.954 311.717 730.271 309.273 731.954 306.246L730.205 305.274C728.687 308.007 726.605 310.203 723.947 311.873L725.012 313.567ZM731.949 306.254C733.721 303.131 734.599 299.639 734.599 295.8H732.599C732.599 299.321 731.797 302.469 730.21 305.266L731.949 306.254ZM734.599 295.8C734.599 291.961 733.721 288.469 731.949 285.346L730.21 286.334C731.797 289.131 732.599 292.279 732.599 295.8H734.599ZM731.949 285.346C730.188 282.243 727.828 279.795 724.874 278.023L723.845 279.737C726.491 281.325 728.611 283.517 730.21 286.334L731.949 285.346ZM724.892 278.033C721.922 276.167 718.575 275.24 714.879 275.24V277.24C718.224 277.24 721.197 278.073 723.827 279.727L724.892 278.033ZM714.879 275.24C711.033 275.24 707.569 276.162 704.518 278.027L705.561 279.733C708.27 278.078 711.366 277.24 714.879 277.24V275.24ZM704.535 278.016C701.5 279.787 699.095 282.236 697.33 285.346L699.069 286.334C700.664 283.524 702.819 281.333 705.543 279.744L704.535 278.016ZM697.325 285.354C695.632 288.403 694.799 291.894 694.799 295.8H696.799C696.799 292.186 697.567 289.037 699.074 286.326L697.325 285.354ZM694.799 295.8C694.799 299.554 695.635 302.999 697.32 306.116L699.079 305.164C697.564 302.361 696.799 299.246 696.799 295.8H694.799ZM697.33 306.134C699.093 309.24 701.492 311.724 704.518 313.573L705.561 311.867C702.827 310.196 700.666 307.96 699.069 305.146L697.33 306.134ZM704.535 313.584C707.584 315.362 711.041 316.24 714.879 316.24V314.24C711.358 314.24 708.255 313.438 705.543 311.856L704.535 313.584ZM762.912 330H761.912V331H762.912V330ZM762.912 265.08V264.08H761.912V265.08H762.912ZM775.872 265.08H776.872V264.08H775.872V265.08ZM775.872 277.8L775.139 278.48L776.872 280.347V277.8H775.872ZM774.312 276.12L773.381 275.755L773.152 276.34L773.579 276.8L774.312 276.12ZM781.992 266.88L782.501 267.741L782.508 267.737L782.515 267.732L781.992 266.88ZM806.952 266.76L806.46 267.631V267.631L806.952 266.76ZM815.592 275.4L814.722 275.892L815.592 275.4ZM818.712 330V331H819.712V330H818.712ZM805.272 330H804.272V331H805.272V330ZM803.472 283.44L802.584 283.899L802.587 283.906L802.591 283.912L803.472 283.44ZM798.312 278.16L797.802 279.02L797.821 279.031L797.84 279.041L798.312 278.16ZM783.312 278.16L783.798 279.034L783.808 279.028L783.312 278.16ZM778.272 283.44L779.16 283.899V283.899L778.272 283.44ZM776.472 330V331H777.472V330H776.472ZM763.912 330V265.08H761.912V330H763.912ZM762.912 266.08H775.872V264.08H762.912V266.08ZM774.872 265.08V277.8H776.872V265.08H774.872ZM776.605 277.12L775.045 275.44L773.579 276.8L775.139 278.48L776.605 277.12ZM775.243 276.485C776.768 272.597 779.187 269.699 782.501 267.741L781.483 266.019C777.757 268.221 775.056 271.483 773.381 275.755L775.243 276.485ZM782.515 267.732C785.859 265.68 789.753 264.64 794.232 264.64V262.64C789.431 262.64 785.165 263.76 781.469 266.028L782.515 267.732ZM794.232 264.64C798.883 264.64 802.95 265.646 806.46 267.631L807.444 265.889C803.595 263.714 799.181 262.64 794.232 262.64V264.64ZM806.46 267.631C809.982 269.621 812.731 272.37 814.722 275.892L816.463 274.908C814.293 271.07 811.282 268.059 807.444 265.889L806.46 267.631ZM814.722 275.892C816.706 279.403 817.712 283.469 817.712 288.12H819.712C819.712 283.171 818.639 278.757 816.463 274.908L814.722 275.892ZM817.712 288.12V330H819.712V288.12H817.712ZM818.712 329H805.272V331H818.712V329ZM806.272 330V291.72H804.272V330H806.272ZM806.272 291.72C806.272 288.322 805.651 285.389 804.354 282.968L802.591 283.912C803.694 285.971 804.272 288.558 804.272 291.72H806.272ZM804.36 282.981C803.07 280.486 801.208 278.577 798.784 277.279L797.84 279.041C799.897 280.143 801.474 281.754 802.584 283.899L804.36 282.981ZM798.822 277.3C796.49 275.918 793.83 275.24 790.872 275.24V277.24C793.514 277.24 795.814 277.842 797.802 279.02L798.822 277.3ZM790.872 275.24C787.913 275.24 785.22 275.918 782.816 277.292L783.808 279.028C785.884 277.842 788.231 277.24 790.872 277.24V275.24ZM782.827 277.286C780.484 278.587 778.669 280.496 777.384 282.981L779.16 283.899C780.275 281.744 781.82 280.133 783.798 279.034L782.827 277.286ZM777.384 282.981C776.096 285.471 775.472 288.396 775.472 291.72H777.472C777.472 288.644 778.049 286.049 779.16 283.899L777.384 282.981ZM775.472 291.72V330H777.472V291.72H775.472ZM776.472 329H762.912V331H776.472V329ZM846.425 327L845.902 327.853L845.91 327.858L845.918 327.862L846.425 327ZM834.785 314.76L833.904 315.234L833.907 315.24L834.785 314.76ZM834.785 279.96L833.916 279.464L833.911 279.474L834.785 279.96ZM846.305 268.08L846.819 268.938L846.83 268.931L846.305 268.08ZM875.705 266.16L875.304 267.076L875.705 266.16ZM885.425 273.12L884.678 273.786L884.688 273.796L885.425 273.12ZM891.425 283.08L890.484 283.42L890.487 283.429L890.491 283.438L891.425 283.08ZM893.465 298.32L894.462 298.391L893.465 298.32ZM892.985 301.44V302.44H893.765L893.955 301.683L892.985 301.44ZM841.265 301.44H840.265V302.44H841.265V301.44ZM841.265 290.64V289.64H840.265V290.64H841.265ZM885.305 290.64L885.909 291.436L888.275 289.64H885.305V290.64ZM878.825 295.56L877.845 295.36L877.314 297.963L879.429 296.356L878.825 295.56ZM877.985 285.12L877.06 285.5L877.065 285.514L877.072 285.528L877.985 285.12ZM871.985 277.8L871.413 278.62L871.427 278.63L871.441 278.64L871.985 277.8ZM853.025 277.8L853.557 278.647L853.565 278.641L853.574 278.636L853.025 277.8ZM846.545 285.48L847.452 285.9L847.456 285.892L846.545 285.48ZM844.745 297.48L845.741 297.571L845.748 297.492L845.742 297.412L844.745 297.48ZM846.545 309L845.646 309.438L845.65 309.447L845.655 309.456L846.545 309ZM853.505 316.68L852.977 317.529L852.987 317.535L853.505 316.68ZM873.785 316.8L873.252 315.953L873.241 315.96L873.785 316.8ZM880.385 309.96L880.824 309.062L879.982 308.65L879.516 309.464L880.385 309.96ZM891.425 315.36L892.346 315.748L892.713 314.877L891.864 314.462L891.425 315.36ZM885.425 323.64L886.097 324.38L886.098 324.379L885.425 323.64ZM875.825 329.4L876.171 330.338L876.182 330.334L875.825 329.4ZM863.705 330.44C857.383 330.44 851.801 328.998 846.931 326.138L845.918 327.862C851.128 330.922 857.066 332.44 863.705 332.44V330.44ZM846.947 326.147C842.137 323.199 838.379 319.248 835.662 314.28L833.907 315.24C836.791 320.512 840.793 324.721 845.902 327.853L846.947 326.147ZM835.665 314.286C832.95 309.244 831.585 303.609 831.585 297.36H829.585C829.585 303.911 831.019 309.876 833.904 315.234L835.665 314.286ZM831.585 297.36C831.585 290.946 832.952 285.318 835.659 280.446L833.911 279.474C831.017 284.682 829.585 290.654 829.585 297.36H831.585ZM835.653 280.456C838.451 275.559 842.172 271.726 846.819 268.937L845.79 267.223C840.838 270.194 836.878 274.281 833.916 279.464L835.653 280.456ZM846.83 268.931C851.459 266.076 856.715 264.64 862.625 264.64V262.64C856.374 262.64 850.75 264.164 845.78 267.229L846.83 268.931ZM862.625 264.64C867.389 264.64 871.609 265.46 875.304 267.076L876.105 265.244C872.12 263.5 867.62 262.64 862.625 262.64V264.64ZM875.304 267.076C879.02 268.702 882.14 270.939 884.678 273.786L886.171 272.454C883.43 269.381 880.07 266.978 876.105 265.244L875.304 267.076ZM884.688 273.796C887.236 276.576 889.168 279.781 890.484 283.42L892.365 282.74C890.961 278.859 888.893 275.424 886.162 272.444L884.688 273.796ZM890.491 283.438C891.885 287.077 892.585 290.956 892.585 295.08H894.585C894.585 290.724 893.845 286.602 892.359 282.722L890.491 283.438ZM892.585 295.08C892.585 296.094 892.546 297.151 892.467 298.249L894.462 298.391C894.544 297.249 894.585 296.146 894.585 295.08H892.585ZM892.467 298.249C892.391 299.319 892.239 300.301 892.015 301.197L893.955 301.683C894.211 300.659 894.379 299.561 894.462 298.391L892.467 298.249ZM892.985 300.44H841.265V302.44H892.985V300.44ZM842.265 301.44V290.64H840.265V301.44H842.265ZM841.265 291.64H885.305V289.64H841.265V291.64ZM884.7 289.844L878.22 294.764L879.429 296.356L885.909 291.436L884.7 289.844ZM879.805 295.76C880.638 291.677 880.359 287.978 878.898 284.712L877.072 285.528C878.33 288.342 878.612 291.603 877.845 295.36L879.805 295.76ZM878.91 284.74C877.556 281.44 875.426 278.836 872.528 276.96L871.441 278.64C873.983 280.284 875.854 282.56 877.06 285.5L878.91 284.74ZM872.556 276.98C869.729 275.009 866.404 274.04 862.625 274.04V276.04C866.046 276.04 868.96 276.911 871.413 278.62L872.556 276.98ZM862.625 274.04C858.845 274.04 855.451 275.009 852.476 276.964L853.574 278.636C856.198 276.911 859.205 276.04 862.625 276.04V274.04ZM852.493 276.953C849.508 278.83 847.225 281.55 845.634 285.068L847.456 285.892C848.905 282.69 850.942 280.29 853.557 278.647L852.493 276.953ZM845.637 285.06C844.028 288.532 843.419 292.71 843.747 297.548L845.742 297.412C845.43 292.81 846.021 288.988 847.452 285.9L845.637 285.06ZM843.749 297.389C843.336 301.933 843.95 305.963 845.646 309.438L847.443 308.562C845.939 305.477 845.354 301.827 845.741 297.571L843.749 297.389ZM845.655 309.456C847.412 312.888 849.854 315.588 852.977 317.529L854.033 315.831C851.236 314.092 849.037 311.672 847.435 308.544L845.655 309.456ZM852.987 317.535C856.196 319.478 859.817 320.44 863.825 320.44V318.44C860.152 318.44 856.894 317.562 854.022 315.824L852.987 317.535ZM863.825 320.44C867.897 320.44 871.415 319.524 874.328 317.64L873.241 315.96C870.714 317.596 867.593 318.44 863.825 318.44V320.44ZM874.317 317.647C877.252 315.802 879.569 313.403 881.253 310.456L879.516 309.464C878 312.117 875.917 314.279 873.253 315.953L874.317 317.647ZM879.945 310.858L890.985 316.258L891.864 314.462L880.824 309.062L879.945 310.858ZM890.503 314.972C889.285 317.864 887.376 320.507 884.751 322.901L886.098 324.379C888.913 321.813 891.004 318.936 892.346 315.748L890.503 314.972ZM884.752 322.9C882.215 325.206 879.126 327.065 875.467 328.466L876.182 330.334C880.044 328.855 883.354 326.874 886.097 324.38L884.752 322.9ZM875.478 328.462C871.922 329.776 868.001 330.44 863.705 330.44V332.44C868.209 332.44 872.368 331.744 876.171 330.338L875.478 328.462ZM906.818 330H905.818V331H906.818V330ZM906.818 265.08V264.08H905.818V265.08H906.818ZM919.778 265.08H920.778V264.08H919.778V265.08ZM919.778 278.16L918.93 278.69L920.778 281.647V278.16H919.778ZM918.578 276.24L917.632 275.918L917.479 276.368L917.73 276.77L918.578 276.24ZM925.538 267.12L926.037 267.987L926.045 267.982L926.053 267.977L925.538 267.12ZM941.018 264.24H942.018V263.24H941.018V264.24ZM941.018 276.6V277.6H942.018V276.6H941.018ZM920.378 330V331H921.378V330H920.378ZM907.818 330V265.08H905.818V330H907.818ZM906.818 266.08H919.778V264.08H906.818V266.08ZM918.778 265.08V278.16H920.778V265.08H918.778ZM920.626 277.63L919.426 275.71L917.73 276.77L918.93 278.69L920.626 277.63ZM919.525 276.562C920.905 272.5 923.09 269.681 926.037 267.987L925.04 266.253C921.586 268.239 919.132 271.5 917.632 275.918L919.525 276.562ZM926.053 267.977C929.069 266.168 932.723 265.24 937.058 265.24V263.24C932.434 263.24 928.408 264.232 925.024 266.262L926.053 267.977ZM937.058 265.24H941.018V263.24H937.058V265.24ZM940.018 264.24V276.6H942.018V264.24H940.018ZM941.018 275.6H935.378V277.6H941.018V275.6ZM935.378 275.6C930.671 275.6 926.764 277.08 923.751 280.093L925.166 281.507C927.753 278.92 931.126 277.6 935.378 277.6V275.6ZM923.751 280.093C920.788 283.056 919.378 287.266 919.378 292.56H921.378C921.378 287.614 922.689 283.984 925.166 281.507L923.751 280.093ZM919.378 292.56V330H921.378V292.56H919.378ZM920.378 329H906.818V331H920.378V329Z" fill="#383838" mask="url(#path-4-outside-1_8_223)"/>
<g filter="url(#filter0_d_8_223)">
<path d="M248.545 170L242.728 149.593L262 158.813L253.182 161.938L248.545 170Z" fill="#383838"/>
<path d="M248.061 170.135L248.388 171.279L248.981 170.247L253.526 162.345L262.17 159.282L263.298 158.882L262.218 158.365L242.945 149.145L241.941 148.665L242.244 149.728L248.061 170.135Z" stroke="#383838"/>
</g>
<rect x="263" y="171" width="77" height="38" fill="#383838"/>
<rect x="263" y="171" width="77" height="38" stroke="#383838" stroke-width="2"/>
<path d="M279.278 196V184.364H286.494V185.875H281.034V189.42H285.977V190.926H281.034V196H279.278ZM291.026 196.193C290.473 196.193 289.973 196.091 289.526 195.886C289.079 195.678 288.724 195.377 288.463 194.983C288.205 194.589 288.077 194.106 288.077 193.534C288.077 193.042 288.171 192.636 288.361 192.318C288.55 192 288.806 191.748 289.128 191.562C289.45 191.377 289.81 191.237 290.207 191.142C290.605 191.047 291.01 190.975 291.423 190.926C291.946 190.866 292.37 190.816 292.696 190.778C293.022 190.737 293.259 190.67 293.406 190.58C293.554 190.489 293.628 190.341 293.628 190.136V190.097C293.628 189.6 293.488 189.216 293.207 188.943C292.931 188.67 292.518 188.534 291.969 188.534C291.397 188.534 290.946 188.661 290.616 188.915C290.291 189.165 290.065 189.443 289.94 189.75L288.344 189.386C288.533 188.856 288.81 188.428 289.173 188.102C289.541 187.773 289.963 187.534 290.44 187.386C290.918 187.235 291.42 187.159 291.946 187.159C292.295 187.159 292.664 187.201 293.054 187.284C293.448 187.364 293.815 187.511 294.156 187.727C294.501 187.943 294.783 188.252 295.003 188.653C295.223 189.051 295.332 189.568 295.332 190.205V196H293.673V194.807H293.605C293.495 195.027 293.33 195.242 293.111 195.455C292.891 195.667 292.609 195.843 292.264 195.983C291.92 196.123 291.507 196.193 291.026 196.193ZM291.395 194.83C291.865 194.83 292.266 194.737 292.599 194.551C292.937 194.366 293.192 194.123 293.366 193.824C293.545 193.521 293.634 193.197 293.634 192.852V191.727C293.573 191.788 293.455 191.845 293.281 191.898C293.111 191.947 292.916 191.991 292.696 192.028C292.476 192.062 292.262 192.095 292.054 192.125C291.846 192.152 291.671 192.174 291.531 192.193C291.202 192.235 290.901 192.305 290.628 192.403C290.359 192.502 290.143 192.644 289.98 192.83C289.821 193.011 289.741 193.254 289.741 193.557C289.741 193.977 289.897 194.295 290.207 194.511C290.518 194.723 290.914 194.83 291.395 194.83ZM300.862 196.17C300.158 196.17 299.529 195.991 298.976 195.631C298.427 195.267 297.995 194.75 297.68 194.08C297.37 193.405 297.214 192.597 297.214 191.653C297.214 190.71 297.372 189.903 297.686 189.233C298.004 188.562 298.44 188.049 298.993 187.693C299.546 187.337 300.173 187.159 300.874 187.159C301.415 187.159 301.851 187.25 302.18 187.432C302.514 187.61 302.771 187.818 302.953 188.057C303.139 188.295 303.283 188.506 303.385 188.688H303.487V184.364H305.186V196H303.527V194.642H303.385C303.283 194.828 303.135 195.04 302.942 195.278C302.752 195.517 302.491 195.725 302.158 195.903C301.824 196.081 301.393 196.17 300.862 196.17ZM301.237 194.722C301.726 194.722 302.139 194.593 302.476 194.335C302.817 194.074 303.074 193.712 303.249 193.25C303.427 192.788 303.516 192.25 303.516 191.636C303.516 191.03 303.429 190.5 303.254 190.045C303.08 189.591 302.824 189.237 302.487 188.983C302.15 188.729 301.733 188.602 301.237 188.602C300.726 188.602 300.3 188.735 299.959 189C299.618 189.265 299.36 189.627 299.186 190.085C299.016 190.544 298.93 191.061 298.93 191.636C298.93 192.22 299.018 192.744 299.192 193.21C299.366 193.676 299.624 194.045 299.964 194.318C300.309 194.587 300.733 194.722 301.237 194.722ZM309.31 190.818V196H307.611V184.364H309.287V188.693H309.395C309.599 188.223 309.912 187.85 310.332 187.574C310.753 187.297 311.302 187.159 311.98 187.159C312.579 187.159 313.101 187.282 313.548 187.528C313.999 187.775 314.348 188.142 314.594 188.631C314.844 189.116 314.969 189.722 314.969 190.449V196H313.27V190.653C313.27 190.013 313.105 189.517 312.776 189.165C312.446 188.809 311.988 188.631 311.401 188.631C310.999 188.631 310.639 188.716 310.321 188.886C310.007 189.057 309.759 189.307 309.577 189.636C309.399 189.962 309.31 190.356 309.31 190.818ZM318.935 184.364V196H317.236V184.364H318.935ZM321.22 196V187.273H322.919V196H321.22ZM322.078 185.926C321.783 185.926 321.529 185.828 321.317 185.631C321.108 185.43 321.004 185.191 321.004 184.915C321.004 184.634 321.108 184.396 321.317 184.199C321.529 183.998 321.783 183.898 322.078 183.898C322.374 183.898 322.625 183.998 322.834 184.199C323.046 184.396 323.152 184.634 323.152 184.915C323.152 185.191 323.046 185.43 322.834 185.631C322.625 185.828 322.374 185.926 322.078 185.926Z" fill="#111111"/>
<defs>
<filter id="filter0_d_8_223" x="239.155" y="146.736" width="27.4424" height="28.8217" filterUnits="userSpaceOnUse" color-interpolation-filters="sRGB">
<feFlood flood-opacity="0" result="BackgroundImageFix"/>
<feColorMatrix in="SourceAlpha" type="matrix" values="0 0 0 0 0 0 0 0 0 0 0 0 0 0 0 0 0 0 127 0" result="hardAlpha"/>
<feOffset dy="1"/>
<feGaussianBlur stdDeviation="1"/>
<feComposite in2="hardAlpha" operator="out"/>
<feColorMatrix type="matrix" values="0 0 0 0 0 0 0 0 0 0 0 0 0 0 0 0 0 0 0.08 0"/>
<feBlend mode="normal" in2="BackgroundImageFix" result="effect1_dropShadow_8_223"/>
<feBlend mode="normal" in="SourceGraphic" in2="effect1_dropShadow_8_223" result="shape"/>
</filter>
<clipPath id="clip0_8_223">
<rect width="15" height="15" fill="white" transform="translate(732 43)"/>
</clipPath>
</defs>
</svg>
