<svg width="1366" height="567" viewBox="0 0 1366 567" fill="none" xmlns="http://www.w3.org/2000/svg">
<g clip-path="url(#clip0_8_223)">
<path fill-rule="evenodd" clip-rule="evenodd" d="M736.219 46.2817L736.808 46.8708L738.911 48.9733L739.5 49.5625L740.089 48.9733L742.192 46.8708L742.781 46.2817L742.192 45.6917L740.089 43.5892L739.5 43L738.911 43.5892L736.808 45.6917L736.219 46.2817ZM736.219 54.7183L736.808 55.3083L738.911 57.4108L739.5 58L740.089 57.4108L742.192 55.3083L742.781 54.7192L742.192 54.1292L740.089 52.0267L739.5 51.4375L738.911 52.0267L736.808 54.1292L736.219 54.7183ZM732.589 51.0892L732 50.5L732.589 49.9108L734.692 47.8083L735.282 47.2192L735.871 47.8083L737.973 49.9108L738.562 50.5L737.973 51.0892L735.871 53.1917L735.282 53.7808L734.692 53.1917L732.589 51.0892ZM740.438 50.5L741.027 51.0892L743.129 53.1917L743.718 53.7808L744.308 53.1917L746.411 51.0892L747 50.5L746.411 49.9108L744.308 47.8083L743.719 47.2192L743.129 47.8083L741.027 49.9108L740.438 50.5Z" fill="#F1F1F1"/>
</g>
<path d="M755.548 45.976C755.972 45.976 756.372 46.044 756.748 46.18C757.132 46.308 757.476 46.488 757.78 46.72C758.084 46.952 758.332 47.22 758.524 47.524C758.724 47.82 758.852 48.144 758.908 48.496C758.924 48.584 758.924 48.644 758.908 48.676C758.892 48.7 758.856 48.716 758.8 48.724L757.684 48.796C757.636 48.804 757.604 48.796 757.588 48.772C757.572 48.748 757.556 48.712 757.54 48.664C757.436 48.184 757.216 47.792 756.88 47.488C756.544 47.184 756.116 47.032 755.596 47.032C754.836 47.032 754.248 47.32 753.832 47.896C753.424 48.472 753.22 49.352 753.22 50.536C753.22 51.704 753.42 52.576 753.82 53.152C754.228 53.728 754.836 54.016 755.644 54.016C756.18 54.016 756.628 53.888 756.988 53.632C757.356 53.368 757.656 52.94 757.888 52.348C757.912 52.292 757.972 52.272 758.068 52.288L758.92 52.492C758.944 52.5 758.968 52.516 758.992 52.54C759.016 52.564 759.02 52.616 759.004 52.696C758.948 52.904 758.856 53.12 758.728 53.344C758.6 53.568 758.44 53.788 758.248 54.004C758.056 54.212 757.828 54.4 757.564 54.568C757.3 54.736 757 54.872 756.664 54.976C756.336 55.072 755.976 55.12 755.584 55.12C754.776 55.12 754.08 54.932 753.496 54.556C752.92 54.18 752.476 53.648 752.164 52.96C751.852 52.272 751.696 51.46 751.696 50.524C751.696 49.58 751.852 48.768 752.164 48.088C752.476 47.408 752.92 46.888 753.496 46.528C754.072 46.16 754.756 45.976 755.548 45.976ZM763.131 55.12C762.515 55.12 761.975 54.984 761.511 54.712C761.047 54.432 760.687 54.048 760.431 53.56C760.175 53.064 760.047 52.496 760.047 51.856C760.047 51.192 760.179 50.612 760.443 50.116C760.707 49.612 761.071 49.22 761.535 48.94C762.007 48.66 762.543 48.52 763.143 48.52C763.767 48.52 764.307 48.664 764.763 48.952C765.227 49.232 765.587 49.624 765.843 50.128C766.099 50.624 766.227 51.196 766.227 51.844C766.227 52.484 766.095 53.052 765.831 53.548C765.575 54.036 765.215 54.42 764.751 54.7C764.287 54.98 763.747 55.12 763.131 55.12ZM763.155 54.22C763.531 54.22 763.851 54.124 764.115 53.932C764.379 53.74 764.579 53.468 764.715 53.116C764.859 52.756 764.931 52.324 764.931 51.82C764.931 51.316 764.859 50.884 764.715 50.524C764.579 50.164 764.375 49.888 764.103 49.696C763.839 49.496 763.519 49.396 763.143 49.396C762.767 49.396 762.443 49.496 762.171 49.696C761.907 49.888 761.703 50.164 761.559 50.524C761.415 50.884 761.343 51.316 761.343 51.82C761.343 52.324 761.415 52.756 761.559 53.116C761.703 53.468 761.907 53.74 762.171 53.932C762.443 54.124 762.771 54.22 763.155 54.22ZM767.759 55C767.631 55 767.567 54.936 767.567 54.808V48.82C767.567 48.7 767.619 48.64 767.723 48.64H768.659C768.755 48.64 768.803 48.692 768.803 48.796V49.456C768.803 49.496 768.815 49.524 768.839 49.54C768.863 49.548 768.891 49.532 768.923 49.492C769.171 49.292 769.403 49.12 769.619 48.976C769.835 48.824 770.055 48.712 770.279 48.64C770.511 48.56 770.759 48.52 771.023 48.52C771.479 48.52 771.851 48.628 772.139 48.844C772.427 49.052 772.623 49.304 772.727 49.6C772.743 49.632 772.763 49.644 772.787 49.636C772.819 49.628 772.851 49.608 772.883 49.576C773.115 49.36 773.347 49.176 773.579 49.024C773.811 48.864 774.047 48.74 774.287 48.652C774.527 48.564 774.779 48.52 775.043 48.52C775.619 48.52 776.067 48.688 776.387 49.024C776.715 49.36 776.879 49.812 776.879 50.38V54.784C776.879 54.928 776.807 55 776.663 55H775.775C775.719 55 775.675 54.988 775.643 54.964C775.619 54.932 775.607 54.88 775.607 54.808V50.608C775.607 50.256 775.519 49.98 775.343 49.78C775.167 49.58 774.903 49.48 774.551 49.48C774.343 49.48 774.143 49.52 773.951 49.6C773.759 49.68 773.583 49.78 773.423 49.9C773.271 50.012 773.135 50.124 773.015 50.236C772.959 50.292 772.919 50.344 772.895 50.392C772.871 50.44 772.859 50.504 772.859 50.584V54.784C772.859 54.928 772.787 55 772.643 55H771.767C771.711 55 771.667 54.988 771.635 54.964C771.603 54.932 771.587 54.88 771.587 54.808V50.608C771.587 50.256 771.503 49.98 771.335 49.78C771.167 49.58 770.899 49.48 770.531 49.48C770.227 49.48 769.947 49.556 769.691 49.708C769.443 49.852 769.159 50.076 768.839 50.38V54.796C768.839 54.932 768.763 55 768.611 55H767.759ZM779.556 48.64C779.692 48.64 779.76 48.704 779.76 48.832V49.3C779.76 49.356 779.772 49.388 779.796 49.396C779.828 49.396 779.868 49.376 779.916 49.336C780.02 49.232 780.148 49.12 780.3 49C780.452 48.872 780.644 48.76 780.876 48.664C781.116 48.568 781.408 48.52 781.752 48.52C782.24 48.52 782.676 48.64 783.06 48.88C783.452 49.112 783.76 49.464 783.984 49.936C784.216 50.408 784.332 51.008 784.332 51.736C784.332 52.472 784.216 53.092 783.984 53.596C783.76 54.092 783.444 54.472 783.036 54.736C782.636 54.992 782.168 55.12 781.632 55.12C781.28 55.12 780.964 55.068 780.684 54.964C780.412 54.852 780.172 54.704 779.964 54.52C779.892 54.448 779.84 54.42 779.808 54.436C779.776 54.444 779.76 54.496 779.76 54.592V56.812C779.76 56.924 779.712 56.98 779.616 56.98H778.644C778.54 56.98 778.488 56.924 778.488 56.812V48.856C778.488 48.776 778.504 48.72 778.536 48.688C778.568 48.656 778.628 48.64 778.716 48.64H779.556ZM779.76 53.524C779.976 53.748 780.2 53.928 780.432 54.064C780.672 54.192 780.94 54.256 781.236 54.256C781.596 54.256 781.908 54.164 782.172 53.98C782.444 53.796 782.656 53.52 782.808 53.152C782.96 52.776 783.036 52.304 783.036 51.736C783.036 51.168 782.956 50.712 782.796 50.368C782.644 50.024 782.436 49.776 782.172 49.624C781.908 49.464 781.616 49.384 781.296 49.384C781 49.384 780.736 49.448 780.504 49.576C780.272 49.704 780.088 49.864 779.952 50.056C779.824 50.248 779.76 50.44 779.76 50.632V53.524ZM788.443 55.12C787.827 55.12 787.287 54.984 786.823 54.712C786.359 54.432 785.999 54.048 785.743 53.56C785.487 53.064 785.359 52.496 785.359 51.856C785.359 51.192 785.491 50.612 785.755 50.116C786.019 49.612 786.383 49.22 786.847 48.94C787.319 48.66 787.855 48.52 788.455 48.52C789.079 48.52 789.619 48.664 790.075 48.952C790.539 49.232 790.899 49.624 791.155 50.128C791.411 50.624 791.539 51.196 791.539 51.844C791.539 52.484 791.407 53.052 791.143 53.548C790.887 54.036 790.527 54.42 790.063 54.7C789.599 54.98 789.059 55.12 788.443 55.12ZM788.467 54.22C788.843 54.22 789.163 54.124 789.427 53.932C789.691 53.74 789.891 53.468 790.027 53.116C790.171 52.756 790.243 52.324 790.243 51.82C790.243 51.316 790.171 50.884 790.027 50.524C789.891 50.164 789.687 49.888 789.415 49.696C789.151 49.496 788.831 49.396 788.455 49.396C788.079 49.396 787.755 49.496 787.483 49.696C787.219 49.888 787.015 50.164 786.871 50.524C786.727 50.884 786.655 51.316 786.655 51.82C786.655 52.324 786.727 52.756 786.871 53.116C787.015 53.468 787.219 53.74 787.483 53.932C787.755 54.124 788.083 54.22 788.467 54.22ZM793.071 55C792.943 55 792.879 54.936 792.879 54.808V48.82C792.879 48.7 792.931 48.64 793.035 48.64H793.983C794.079 48.64 794.127 48.692 794.127 48.796V49.456C794.127 49.496 794.135 49.524 794.151 49.54C794.175 49.548 794.207 49.532 794.247 49.492C794.495 49.292 794.731 49.12 794.955 48.976C795.179 48.824 795.407 48.712 795.639 48.64C795.871 48.56 796.123 48.52 796.395 48.52C797.003 48.52 797.475 48.688 797.811 49.024C798.147 49.36 798.315 49.804 798.315 50.356V54.784C798.315 54.928 798.247 55 798.111 55H797.223C797.159 55 797.111 54.988 797.079 54.964C797.055 54.932 797.043 54.88 797.043 54.808V50.608C797.043 50.256 796.951 49.98 796.767 49.78C796.583 49.58 796.299 49.48 795.915 49.48C795.699 49.48 795.499 49.516 795.315 49.588C795.131 49.652 794.947 49.752 794.763 49.888C794.579 50.016 794.375 50.18 794.151 50.38V54.796C794.151 54.932 794.075 55 793.923 55H793.071ZM800.906 52.264C800.906 52.624 800.99 52.952 801.158 53.248C801.334 53.536 801.566 53.768 801.854 53.944C802.15 54.112 802.478 54.196 802.838 54.196C803.206 54.196 803.534 54.12 803.822 53.968C804.11 53.816 804.374 53.58 804.614 53.26C804.638 53.228 804.662 53.212 804.686 53.212C804.71 53.204 804.746 53.212 804.794 53.236L805.406 53.524C805.494 53.564 805.502 53.628 805.43 53.716C805.206 54.044 804.958 54.312 804.686 54.52C804.422 54.728 804.126 54.88 803.798 54.976C803.47 55.072 803.106 55.12 802.706 55.12C802.098 55.12 801.562 54.984 801.098 54.712C800.634 54.44 800.266 54.06 799.994 53.572C799.73 53.084 799.598 52.524 799.598 51.892C799.598 51.196 799.734 50.6 800.006 50.104C800.278 49.6 800.646 49.212 801.11 48.94C801.582 48.66 802.106 48.52 802.682 48.52C803.274 48.52 803.79 48.652 804.23 48.916C804.678 49.172 805.026 49.544 805.274 50.032C805.522 50.52 805.646 51.112 805.646 51.808C805.646 51.88 805.638 51.944 805.622 52C805.606 52.048 805.554 52.072 805.466 52.072H801.026C800.986 52.072 800.954 52.092 800.93 52.132C800.914 52.164 800.906 52.208 800.906 52.264ZM804.182 51.316C804.27 51.316 804.326 51.304 804.35 51.28C804.374 51.256 804.386 51.212 804.386 51.148C804.386 50.844 804.318 50.556 804.182 50.284C804.054 50.012 803.866 49.792 803.618 49.624C803.378 49.456 803.078 49.372 802.718 49.372C802.342 49.372 802.018 49.464 801.746 49.648C801.482 49.824 801.278 50.06 801.134 50.356C800.998 50.652 800.93 50.968 800.93 51.304L804.182 51.316ZM807.11 55C806.982 55 806.918 54.936 806.918 54.808V48.82C806.918 48.7 806.97 48.64 807.074 48.64H808.022C808.118 48.64 808.166 48.692 808.166 48.796V49.456C808.166 49.496 808.174 49.524 808.19 49.54C808.214 49.548 808.246 49.532 808.286 49.492C808.534 49.292 808.77 49.12 808.994 48.976C809.218 48.824 809.446 48.712 809.678 48.64C809.91 48.56 810.162 48.52 810.434 48.52C811.042 48.52 811.514 48.688 811.85 49.024C812.186 49.36 812.354 49.804 812.354 50.356V54.784C812.354 54.928 812.286 55 812.15 55H811.262C811.198 55 811.15 54.988 811.118 54.964C811.094 54.932 811.082 54.88 811.082 54.808V50.608C811.082 50.256 810.99 49.98 810.806 49.78C810.622 49.58 810.338 49.48 809.954 49.48C809.738 49.48 809.538 49.516 809.354 49.588C809.17 49.652 808.986 49.752 808.802 49.888C808.618 50.016 808.414 50.18 808.19 50.38V54.796C808.19 54.932 808.114 55 807.962 55H807.11ZM815.801 49.552C815.729 49.552 815.693 49.592 815.693 49.672V53.188C815.693 53.532 815.757 53.768 815.885 53.896C816.013 54.016 816.209 54.076 816.473 54.076H817.241C817.289 54.076 817.325 54.092 817.349 54.124C817.373 54.148 817.385 54.18 817.385 54.22V54.736C817.385 54.84 817.325 54.908 817.205 54.94C817.101 54.956 816.973 54.968 816.821 54.976C816.669 54.984 816.517 54.992 816.365 55C816.221 55 816.093 55 815.981 55C815.461 55 815.069 54.88 814.805 54.64C814.549 54.392 814.421 54.012 814.421 53.5V49.696C814.421 49.6 814.381 49.552 814.301 49.552H813.401C813.297 49.552 813.245 49.504 813.245 49.408V48.772C813.245 48.684 813.293 48.64 813.389 48.64H814.349C814.413 48.64 814.445 48.604 814.445 48.532L814.589 46.648C814.597 46.536 814.645 46.48 814.733 46.48H815.561C815.665 46.48 815.717 46.544 815.717 46.672V48.532C815.717 48.604 815.753 48.64 815.825 48.64H817.265C817.361 48.64 817.409 48.684 817.409 48.772V49.408C817.409 49.504 817.353 49.552 817.241 49.552H815.801ZM822.897 53.896C823.009 53.896 823.065 53.94 823.065 54.028V54.844C823.065 54.884 823.049 54.92 823.017 54.952C822.993 54.984 822.949 55 822.885 55H818.517C818.405 55 818.349 54.952 818.349 54.856V54.028C818.349 53.94 818.401 53.896 818.505 53.896H819.933C820.005 53.896 820.041 53.872 820.041 53.824V47.716C820.041 47.62 819.997 47.584 819.909 47.608L818.529 48.088C818.401 48.12 818.337 48.064 818.337 47.92V47.344C818.337 47.272 818.345 47.228 818.361 47.212C818.385 47.188 818.421 47.16 818.469 47.128L820.329 46.204C820.417 46.164 820.485 46.136 820.533 46.12C820.589 46.104 820.657 46.096 820.737 46.096H821.337C821.441 46.096 821.493 46.152 821.493 46.264V53.788C821.493 53.86 821.521 53.896 821.577 53.896H822.897Z" fill="#F1F1F1"/>
<rect x="733" y="67" width="547" height="305" rx="14" stroke="#F1F1F1" stroke-width="2" stroke-dasharray="14 14"/>
<path d="M432.24 179V89.6H464.76C470.76 89.6 476.04 90.72 480.6 92.96C485.24 95.12 488.84 98.32 491.4 102.56C493.96 106.72 495.24 111.72 495.24 117.56C495.24 123.32 493.92 128.28 491.28 132.44C488.72 136.6 485.16 139.8 480.6 142.04C476.04 144.28 470.76 145.4 464.76 145.4H446.4V179H432.24ZM446.4 132.8H465.12C468.32 132.8 471.12 132.16 473.52 130.88C475.92 129.6 477.8 127.84 479.16 125.6C480.52 123.28 481.2 120.56 481.2 117.44C481.2 114.32 480.52 111.64 479.16 109.4C477.8 107.08 475.92 105.32 473.52 104.12C471.12 102.84 468.32 102.2 465.12 102.2H446.4V132.8ZM508.498 179V114.08H521.458V127.16L520.258 125.24C521.698 121 524.018 117.96 527.218 116.12C530.418 114.2 534.258 113.24 538.738 113.24H542.698V125.6H537.058C532.578 125.6 528.938 127 526.138 129.8C523.418 132.52 522.058 136.44 522.058 141.56V179H508.498ZM583.295 180.44C577.055 180.44 571.335 178.96 566.135 176C561.015 173.04 556.935 169 553.895 163.88C550.855 158.76 549.335 152.96 549.335 146.48C549.335 139.92 550.855 134.12 553.895 129.08C556.935 123.96 561.015 119.96 566.135 117.08C571.255 114.12 576.975 112.64 583.295 112.64C589.695 112.64 595.415 114.12 600.455 117.08C605.575 119.96 609.615 123.96 612.575 129.08C615.615 134.12 617.135 139.92 617.135 146.48C617.135 153.04 615.615 158.88 612.575 164C609.535 169.12 605.455 173.16 600.335 176.12C595.215 179 589.535 180.44 583.295 180.44ZM583.295 167.84C587.135 167.84 590.535 166.92 593.495 165.08C596.455 163.24 598.775 160.72 600.455 157.52C602.215 154.24 603.095 150.56 603.095 146.48C603.095 142.4 602.215 138.76 600.455 135.56C598.775 132.36 596.455 129.84 593.495 128C590.535 126.16 587.135 125.24 583.295 125.24C579.535 125.24 576.135 126.16 573.095 128C570.135 129.84 567.775 132.36 566.015 135.56C564.335 138.76 563.495 142.4 563.495 146.48C563.495 150.56 564.335 154.24 566.015 157.52C567.775 160.72 570.135 163.24 573.095 165.08C576.135 166.92 579.535 167.84 583.295 167.84ZM660.373 180.44C654.133 180.44 648.533 178.96 643.573 176C638.693 172.96 634.813 168.88 631.933 163.76C629.133 158.64 627.733 152.88 627.733 146.48C627.733 140.08 629.173 134.32 632.053 129.2C634.933 124.08 638.813 120.04 643.693 117.08C648.573 114.12 654.093 112.64 660.253 112.64C665.453 112.64 670.053 113.68 674.053 115.76C678.053 117.84 681.213 120.72 683.533 124.4L681.493 127.52V88.16H694.933V179H682.093V165.8L683.653 168.32C681.413 172.24 678.213 175.24 674.053 177.32C669.893 179.4 665.333 180.44 660.373 180.44ZM661.693 167.84C665.453 167.84 668.813 166.92 671.773 165.08C674.813 163.24 677.173 160.72 678.853 157.52C680.613 154.24 681.493 150.56 681.493 146.48C681.493 142.4 680.613 138.76 678.853 135.56C677.173 132.36 674.813 129.84 671.773 128C668.813 126.16 665.453 125.24 661.693 125.24C657.933 125.24 654.533 126.16 651.493 128C648.453 129.84 646.093 132.36 644.413 135.56C642.733 138.76 641.893 142.4 641.893 146.48C641.893 150.56 642.733 154.24 644.413 157.52C646.093 160.72 648.413 163.24 651.373 165.08C654.413 166.92 657.853 167.84 661.693 167.84ZM733.924 180.44C729.044 180.44 724.764 179.36 721.084 177.2C717.404 174.96 714.524 171.88 712.444 167.96C710.444 163.96 709.444 159.36 709.444 154.16V114.08H723.004V152.96C723.004 155.92 723.604 158.52 724.804 160.76C726.004 163 727.684 164.76 729.844 166.04C732.004 167.24 734.484 167.84 737.284 167.84C740.164 167.84 742.684 167.2 744.844 165.92C747.004 164.64 748.684 162.84 749.884 160.52C751.164 158.2 751.804 155.48 751.804 152.36V114.08H765.244V179H752.404V166.28L753.844 167.96C752.324 171.96 749.804 175.04 746.284 177.2C742.764 179.36 738.644 180.44 733.924 180.44ZM811.916 180.44C805.436 180.44 799.676 178.96 794.636 176C789.676 172.96 785.716 168.88 782.756 163.76C779.876 158.64 778.436 152.84 778.436 146.36C778.436 139.96 779.876 134.2 782.756 129.08C785.636 123.96 789.596 119.96 794.636 117.08C799.676 114.12 805.436 112.64 811.916 112.64C816.316 112.64 820.436 113.44 824.276 115.04C828.116 116.56 831.436 118.68 834.236 121.4C837.116 124.12 839.236 127.28 840.596 130.88L828.716 136.4C827.356 133.04 825.156 130.36 822.116 128.36C819.156 126.28 815.756 125.24 811.916 125.24C808.236 125.24 804.916 126.16 801.956 128C799.076 129.76 796.796 132.28 795.116 135.56C793.436 138.76 792.596 142.4 792.596 146.48C792.596 150.56 793.436 154.24 795.116 157.52C796.796 160.72 799.076 163.24 801.956 165.08C804.916 166.92 808.236 167.84 811.916 167.84C815.836 167.84 819.236 166.84 822.116 164.84C825.076 162.76 827.276 160 828.716 156.56L840.596 162.2C839.316 165.64 837.236 168.76 834.356 171.56C831.556 174.28 828.236 176.44 824.396 178.04C820.556 179.64 816.396 180.44 811.916 180.44ZM881.93 179.72C875.13 179.72 869.85 177.8 866.09 173.96C862.33 170.12 860.45 164.72 860.45 157.76V126.32H849.05V114.08H850.85C853.89 114.08 856.25 113.2 857.93 111.44C859.61 109.68 860.45 107.28 860.45 104.24V99.2H874.01V114.08H888.77V126.32H874.01V157.16C874.01 159.4 874.37 161.32 875.09 162.92C875.81 164.44 876.97 165.64 878.57 166.52C880.17 167.32 882.25 167.72 884.81 167.72C885.45 167.72 886.17 167.68 886.97 167.6C887.77 167.52 888.53 167.44 889.25 167.36V179C888.13 179.16 886.89 179.32 885.53 179.48C884.17 179.64 882.97 179.72 881.93 179.72ZM432.24 330V240.6H461.52C470.8 240.6 478.84 242.48 485.64 246.24C492.52 249.92 497.84 255.12 501.6 261.84C505.36 268.56 507.24 276.36 507.24 285.24C507.24 294.04 505.36 301.84 501.6 308.64C497.84 315.36 492.52 320.6 485.64 324.36C478.84 328.12 470.8 330 461.52 330H432.24ZM446.4 317.4H461.76C468.08 317.4 473.56 316.08 478.2 313.44C482.92 310.8 486.56 307.08 489.12 302.28C491.68 297.48 492.96 291.8 492.96 285.24C492.96 278.68 491.64 273.04 489 268.32C486.44 263.52 482.84 259.8 478.2 257.16C473.56 254.52 468.08 253.2 461.76 253.2H446.4V317.4ZM550.345 331.44C543.865 331.44 538.105 329.96 533.065 327C528.105 323.96 524.225 319.88 521.425 314.76C518.625 309.56 517.225 303.76 517.225 297.36C517.225 290.8 518.625 285 521.425 279.96C524.305 274.92 528.145 270.96 532.945 268.08C537.745 265.12 543.185 263.64 549.265 263.64C554.145 263.64 558.505 264.48 562.345 266.16C566.185 267.84 569.425 270.16 572.065 273.12C574.705 276 576.705 279.32 578.065 283.08C579.505 286.84 580.225 290.84 580.225 295.08C580.225 296.12 580.185 297.2 580.105 298.32C580.025 299.44 579.865 300.48 579.625 301.44H527.905V290.64H571.945L565.465 295.56C566.265 291.64 565.985 288.16 564.625 285.12C563.345 282 561.345 279.56 558.625 277.8C555.985 275.96 552.865 275.04 549.265 275.04C545.665 275.04 542.465 275.96 539.665 277.8C536.865 279.56 534.705 282.12 533.185 285.48C531.665 288.76 531.065 292.76 531.385 297.48C530.985 301.88 531.585 305.72 533.185 309C534.865 312.28 537.185 314.84 540.145 316.68C543.185 318.52 546.625 319.44 550.465 319.44C554.385 319.44 557.705 318.56 560.425 316.8C563.225 315.04 565.425 312.76 567.025 309.96L578.065 315.36C576.785 318.4 574.785 321.16 572.065 323.64C569.425 326.04 566.225 327.96 562.465 329.4C558.785 330.76 554.745 331.44 550.345 331.44ZM617.459 331.44C610.819 331.44 604.979 329.8 599.939 326.52C594.979 323.24 591.499 318.84 589.499 313.32L599.939 308.4C601.699 312.08 604.099 315 607.139 317.16C610.259 319.32 613.699 320.4 617.459 320.4C620.659 320.4 623.259 319.68 625.259 318.24C627.259 316.8 628.259 314.84 628.259 312.36C628.259 310.76 627.819 309.48 626.939 308.52C626.059 307.48 624.939 306.64 623.579 306C622.299 305.36 620.979 304.88 619.619 304.56L609.419 301.68C603.819 300.08 599.619 297.68 596.819 294.48C594.099 291.2 592.739 287.4 592.739 283.08C592.739 279.16 593.739 275.76 595.739 272.88C597.739 269.92 600.499 267.64 604.019 266.04C607.539 264.44 611.499 263.64 615.899 263.64C621.819 263.64 627.099 265.12 631.739 268.08C636.379 270.96 639.659 275 641.579 280.2L631.139 285.12C629.859 282 627.819 279.52 625.019 277.68C622.299 275.84 619.219 274.92 615.779 274.92C612.819 274.92 610.459 275.64 608.699 277.08C606.939 278.44 606.059 280.24 606.059 282.48C606.059 284 606.459 285.28 607.259 286.32C608.059 287.28 609.099 288.08 610.379 288.72C611.659 289.28 612.979 289.76 614.339 290.16L624.899 293.28C630.259 294.8 634.379 297.2 637.259 300.48C640.139 303.68 641.579 307.52 641.579 312C641.579 315.84 640.539 319.24 638.459 322.2C636.459 325.08 633.659 327.36 630.059 329.04C626.459 330.64 622.259 331.44 617.459 331.44ZM654.865 330V265.08H668.425V330H654.865ZM654.865 256.2V240.6H668.425V256.2H654.865ZM715.599 356.4C710.879 356.4 706.519 355.64 702.519 354.12C698.519 352.6 695.079 350.48 692.199 347.76C689.319 345.12 687.159 342 685.719 338.4L698.199 333.24C699.319 336.28 701.359 338.8 704.319 340.8C707.359 342.8 711.079 343.8 715.479 343.8C718.919 343.8 721.999 343.12 724.719 341.76C727.439 340.48 729.599 338.56 731.199 336C732.799 333.52 733.599 330.52 733.599 327V312.36L735.999 315.12C733.759 319.28 730.639 322.44 726.639 324.6C722.719 326.76 718.279 327.84 713.319 327.84C707.319 327.84 701.919 326.44 697.119 323.64C692.319 320.84 688.519 317 685.719 312.12C682.999 307.24 681.639 301.76 681.639 295.68C681.639 289.52 682.999 284.04 685.719 279.24C688.519 274.44 692.279 270.64 696.999 267.84C701.719 265.04 707.119 263.64 713.199 263.64C718.159 263.64 722.559 264.72 726.399 266.88C730.319 268.96 733.519 272 735.999 276L734.199 279.36V265.08H747.039V327C747.039 332.6 745.679 337.6 742.959 342C740.319 346.48 736.639 350 731.919 352.56C727.199 355.12 721.759 356.4 715.599 356.4ZM714.879 315.24C718.479 315.24 721.679 314.4 724.479 312.72C727.279 310.96 729.479 308.64 731.079 305.76C732.759 302.8 733.599 299.48 733.599 295.8C733.599 292.12 732.759 288.8 731.079 285.84C729.399 282.88 727.159 280.56 724.359 278.88C721.559 277.12 718.399 276.24 714.879 276.24C711.199 276.24 707.919 277.12 705.039 278.88C702.159 280.56 699.879 282.88 698.199 285.84C696.599 288.72 695.799 292.04 695.799 295.8C695.799 299.4 696.599 302.68 698.199 305.64C699.879 308.6 702.159 310.96 705.039 312.72C707.919 314.4 711.199 315.24 714.879 315.24ZM762.912 330V265.08H775.872V277.8L774.312 276.12C775.912 272.04 778.472 268.96 781.992 266.88C785.512 264.72 789.592 263.64 794.232 263.64C799.032 263.64 803.272 264.68 806.952 266.76C810.632 268.84 813.512 271.72 815.592 275.4C817.672 279.08 818.712 283.32 818.712 288.12V330H805.272V291.72C805.272 288.44 804.672 285.68 803.472 283.44C802.272 281.12 800.552 279.36 798.312 278.16C796.152 276.88 793.672 276.24 790.872 276.24C788.072 276.24 785.552 276.88 783.312 278.16C781.152 279.36 779.472 281.12 778.272 283.44C777.072 285.76 776.472 288.52 776.472 291.72V330H762.912ZM863.705 331.44C857.225 331.44 851.465 329.96 846.425 327C841.465 323.96 837.585 319.88 834.785 314.76C831.985 309.56 830.585 303.76 830.585 297.36C830.585 290.8 831.985 285 834.785 279.96C837.665 274.92 841.505 270.96 846.305 268.08C851.105 265.12 856.545 263.64 862.625 263.64C867.505 263.64 871.865 264.48 875.705 266.16C879.545 267.84 882.785 270.16 885.425 273.12C888.065 276 890.065 279.32 891.425 283.08C892.865 286.84 893.585 290.84 893.585 295.08C893.585 296.12 893.545 297.2 893.465 298.32C893.385 299.44 893.225 300.48 892.985 301.44H841.265V290.64H885.305L878.825 295.56C879.625 291.64 879.345 288.16 877.985 285.12C876.705 282 874.705 279.56 871.985 277.8C869.345 275.96 866.225 275.04 862.625 275.04C859.025 275.04 855.825 275.96 853.025 277.8C850.225 279.56 848.065 282.12 846.545 285.48C845.025 288.76 844.425 292.76 844.745 297.48C844.345 301.88 844.945 305.72 846.545 309C848.225 312.28 850.545 314.84 853.505 316.68C856.545 318.52 859.985 319.44 863.825 319.44C867.745 319.44 871.065 318.56 873.785 316.8C876.585 315.04 878.785 312.76 880.385 309.96L891.425 315.36C890.145 318.4 888.145 321.16 885.425 323.64C882.785 326.04 879.585 327.96 875.825 329.4C872.145 330.76 868.105 331.44 863.705 331.44ZM906.818 330V265.08H919.778V278.16L918.578 276.24C920.018 272 922.338 268.96 925.538 267.12C928.738 265.2 932.578 264.24 937.058 264.24H941.018V276.6H935.378C930.898 276.6 927.258 278 924.458 280.8C921.738 283.52 920.378 287.44 920.378 292.56V330H906.818Z" fill="#F1F1F1"/>
<g filter="url(#filter0_d_8_223)">
<path d="M248.545 170L242.728 149.593L262 158.813L253.182 161.938L248.545 170Z" fill="#ECECEC"/>
<path d="M248.061 170.135L248.388 171.279L248.981 170.247L253.526 162.345L262.17 159.282L263.298 158.882L262.218 158.365L242.945 149.145L241.941 148.665L242.244 149.728L248.061 170.135Z" stroke="#F5FAFF"/>
</g>
<rect x="263" y="171" width="77" height="38" fill="#ECECEC"/>
<rect x="263" y="171" width="77" height="38" stroke="#ECECEC" stroke-width="2"/>
<path d="M279.278 196V184.364H286.494V185.875H281.034V189.42H285.977V190.926H281.034V196H279.278ZM291.026 196.193C290.473 196.193 289.973 196.091 289.526 195.886C289.079 195.678 288.724 195.377 288.463 194.983C288.205 194.589 288.077 194.106 288.077 193.534C288.077 193.042 288.171 192.636 288.361 192.318C288.55 192 288.806 191.748 289.128 191.562C289.45 191.377 289.81 191.237 290.207 191.142C290.605 191.047 291.01 190.975 291.423 190.926C291.946 190.866 292.37 190.816 292.696 190.778C293.022 190.737 293.259 190.67 293.406 190.58C293.554 190.489 293.628 190.341 293.628 190.136V190.097C293.628 189.6 293.488 189.216 293.207 188.943C292.931 188.67 292.518 188.534 291.969 188.534C291.397 188.534 290.946 188.661 290.616 188.915C290.291 189.165 290.065 189.443 289.94 189.75L288.344 189.386C288.533 188.856 288.81 188.428 289.173 188.102C289.541 187.773 289.963 187.534 290.44 187.386C290.918 187.235 291.42 187.159 291.946 187.159C292.295 187.159 292.664 187.201 293.054 187.284C293.448 187.364 293.815 187.511 294.156 187.727C294.501 187.943 294.783 188.252 295.003 188.653C295.223 189.051 295.332 189.568 295.332 190.205V196H293.673V194.807H293.605C293.495 195.027 293.33 195.242 293.111 195.455C292.891 195.667 292.609 195.843 292.264 195.983C291.92 196.123 291.507 196.193 291.026 196.193ZM291.395 194.83C291.865 194.83 292.266 194.737 292.599 194.551C292.937 194.366 293.192 194.123 293.366 193.824C293.545 193.521 293.634 193.197 293.634 192.852V191.727C293.573 191.788 293.455 191.845 293.281 191.898C293.111 191.947 292.916 191.991 292.696 192.028C292.476 192.062 292.262 192.095 292.054 192.125C291.846 192.152 291.671 192.174 291.531 192.193C291.202 192.235 290.901 192.305 290.628 192.403C290.359 192.502 290.143 192.644 289.98 192.83C289.821 193.011 289.741 193.254 289.741 193.557C289.741 193.977 289.897 194.295 290.207 194.511C290.518 194.723 290.914 194.83 291.395 194.83ZM300.862 196.17C300.158 196.17 299.529 195.991 298.976 195.631C298.427 195.267 297.995 194.75 297.68 194.08C297.37 193.405 297.214 192.597 297.214 191.653C297.214 190.71 297.372 189.903 297.686 189.233C298.004 188.562 298.44 188.049 298.993 187.693C299.546 187.337 300.173 187.159 300.874 187.159C301.415 187.159 301.851 187.25 302.18 187.432C302.514 187.61 302.771 187.818 302.953 188.057C303.139 188.295 303.283 188.506 303.385 188.688H303.487V184.364H305.186V196H303.527V194.642H303.385C303.283 194.828 303.135 195.04 302.942 195.278C302.752 195.517 302.491 195.725 302.158 195.903C301.824 196.081 301.393 196.17 300.862 196.17ZM301.237 194.722C301.726 194.722 302.139 194.593 302.476 194.335C302.817 194.074 303.074 193.712 303.249 193.25C303.427 192.788 303.516 192.25 303.516 191.636C303.516 191.03 303.429 190.5 303.254 190.045C303.08 189.591 302.824 189.237 302.487 188.983C302.15 188.729 301.733 188.602 301.237 188.602C300.726 188.602 300.3 188.735 299.959 189C299.618 189.265 299.36 189.627 299.186 190.085C299.016 190.544 298.93 191.061 298.93 191.636C298.93 192.22 299.018 192.744 299.192 193.21C299.366 193.676 299.624 194.045 299.964 194.318C300.309 194.587 300.733 194.722 301.237 194.722ZM309.31 190.818V196H307.611V184.364H309.287V188.693H309.395C309.599 188.223 309.912 187.85 310.332 187.574C310.753 187.297 311.302 187.159 311.98 187.159C312.579 187.159 313.101 187.282 313.548 187.528C313.999 187.775 314.348 188.142 314.594 188.631C314.844 189.116 314.969 189.722 314.969 190.449V196H313.27V190.653C313.27 190.013 313.105 189.517 312.776 189.165C312.446 188.809 311.988 188.631 311.401 188.631C310.999 188.631 310.639 188.716 310.321 188.886C310.007 189.057 309.759 189.307 309.577 189.636C309.399 189.962 309.31 190.356 309.31 190.818ZM318.935 184.364V196H317.236V184.364H318.935ZM321.22 196V187.273H322.919V196H321.22ZM322.078 185.926C321.783 185.926 321.529 185.828 321.317 185.631C321.108 185.43 321.004 185.191 321.004 184.915C321.004 184.634 321.108 184.396 321.317 184.199C321.529 183.998 321.783 183.898 322.078 183.898C322.374 183.898 322.625 183.998 322.834 184.199C323.046 184.396 323.152 184.634 323.152 184.915C323.152 185.191 323.046 185.43 322.834 185.631C322.625 185.828 322.374 185.926 322.078 185.926Z" fill="white"/>
<defs>
<filter id="filter0_d_8_223" x="239.155" y="146.736" width="27.4421" height="28.8217" filterUnits="userSpaceOnUse" color-interpolation-filters="sRGB">
<feFlood flood-opacity="0" result="BackgroundImageFix"/>
<feColorMatrix in="SourceAlpha" type="matrix" values="0 0 0 0 0 0 0 0 0 0 0 0 0 0 0 0 0 0 127 0" result="hardAlpha"/>
<feOffset dy="1"/>
<feGaussianBlur stdDeviation="1"/>
<feComposite in2="hardAlpha" operator="out"/>
<feColorMatrix type="matrix" values="0 0 0 0 0 0 0 0 0 0 0 0 0 0 0 0 0 0 0.08 0"/>
<feBlend mode="normal" in2="BackgroundImageFix" result="effect1_dropShadow_8_223"/>
<feBlend mode="normal" in="SourceGraphic" in2="effect1_dropShadow_8_223" result="shape"/>
</filter>
<clipPath id="clip0_8_223">
<rect width="15" height="15" fill="white" transform="translate(732 43)"/>
</clipPath>
</defs>
</svg>
